<svg xmlns="http://www.w3.org/2000/svg" width="32" height="32" viewBox="0 0 32 32"><path d="M16 3.3c7.014 0 12.7 5.686 12.7 12.7 0 7.014-5.686 12.7-12.7 12.7-7.014 0-12.7-5.686-12.7-12.7C3.3 8.986 8.986 3.3 16 3.3zm0 2.4C10.311 5.7 5.7 10.311 5.7 16c0 5.689 4.611 10.3 10.3 10.3 5.689 0 10.3-4.611 10.3-10.3 0-5.689-4.611-10.3-10.3-10.3zm-5.01 11.653c.35 2.359 2.475 4.147 5.01 4.147 2.534 0 4.659-1.787 5.011-4.144a1 1 0 1 1 1.978.295c-.5 3.348-3.475 5.849-6.989 5.849-3.515 0-6.491-2.503-6.99-5.853a1 1 0 1 1 1.979-.294zM12.25 11c.69 0 1.25.56 1.25 1.25v2.5a1.25 1.25 0 0 1-2.5 0v-2.5c0-.69.56-1.25 1.25-1.25zm7.5 0c.69 0 1.25.56 1.25 1.25v2.5a1.25 1.25 0 0 1-2.5 0v-2.5c0-.69.56-1.25 1.25-1.25z" fill="#000" fill-rule="nonzero"/></svg>