<svg xmlns="http://www.w3.org/2000/svg" width="40" height="40" viewBox="0 0 40 40"><path d="M27 4.2A4.8 4.8 0 0 1 31.8 9v22a4.8 4.8 0 0 1-4.8 4.8H13A4.8 4.8 0 0 1 8.2 31V9A4.8 4.8 0 0 1 13 4.2zM27 7H13a2 2 0 0 0-2 2v22a2 2 0 0 0 2 2h14a2 2 0 0 0 2-2V9a2 2 0 0 0-2-2zm-8 8.5a1 1 0 0 1 1 1v7a1 1 0 0 1-1 1h-1a1 1 0 0 1-1-1v-7a1 1 0 0 1 1-1h1zm-4 0a1 1 0 0 1 .993.883L16 16.5v7a1 1 0 0 1-1.993.117L14 23.5v-7a1 1 0 0 1 1-1zm7 0a1 1 0 0 1 .993.883L23 16.5v7a1 1 0 0 1-1.993.117L21 23.5v-7a1 1 0 0 1 1-1zm3 0a1 1 0 0 1 .993.883L26 16.5v7a1 1 0 0 1-1.993.117L24 23.5v-7a1 1 0 0 1 1-1zM22.5 8a1 1 0 0 1 .117 1.993L22.5 10h-5a1 1 0 0 1-.117-1.993L17.5 8h5z" fill="#000" fill-rule="nonzero"/></svg>