<svg xmlns="http://www.w3.org/2000/svg" width="32" height="32" viewBox="0 0 32 32"><path d="M21.9 4.2A4 4 0 0 1 25.895 8l.005.2v10.356l.041.028a6 6 0 1 1-7.654 9.188l.03.03L10.1 27.8A4 4 0 0 1 6.105 24l-.005-.2V8.2a4 4 0 0 1 3.8-3.995l.2-.005h11.8zm2.5 20.2a1 1 0 1 0 0 2 1 1 0 0 0 0-2zm-.12-3.668l-.063.05-4.434 4.435a.4.4 0 0 0-.051.503l.05.063.435.434a.4.4 0 0 0 .503.051l.063-.05 4.434-4.435a.4.4 0 0 0 .051-.503l-.05-.063-.435-.434a.4.4 0 0 0-.503-.051zM22.046 6.607L21.9 6.6h-7.7v18.8h2.607l-.053-.167a6 6 0 0 1 6.786-7.643l-.04-.007V8.2c0-.835-.639-1.52-1.454-1.593zM11.8 6.6h-1.7c-.835 0-1.52.639-1.593 1.454L8.5 8.2v15.6c0 .835.639 1.52 1.454 1.593l.146.007h1.7V6.6zm8.8 14a1 1 0 1 0 0 2 1 1 0 0 0 0-2z" fill="#000" fill-rule="nonzero"/></svg>