<svg xmlns="http://www.w3.org/2000/svg" xmlns:xlink="http://www.w3.org/1999/xlink" width="33" height="32" viewBox="0 0 33 32"><defs><path id="a" d="M11.133 17.566c.989 0 1.819-.306 2.49-.918.671-.613 1.007-1.391 1.007-2.335 0-.96-.336-1.76-1.007-2.402-.671-.642-1.428-.963-2.269-.963h-.31c.06-.87.318-1.594.775-2.17.457-.575 1.077-1.077 1.86-1.505.575-.31.863-.79.863-1.438 0-.443-.133-.805-.399-1.085-.265-.28-.634-.42-1.107-.42-.708 0-1.516.372-2.423 1.117-.908.745-1.675 1.756-2.302 3.033a9.174 9.174 0 0 0-.941 4.106c0 1.594.358 2.822 1.073 3.685.716.864 1.613 1.295 2.69 1.295zm9.74.045c.988 0 1.818-.318 2.49-.952.671-.635 1.007-1.417 1.007-2.346 0-.96-.336-1.76-1.007-2.402-.672-.642-1.42-.963-2.247-.963h-.288c.089-.886.34-1.605.753-2.158.413-.554 1.025-1.06 1.837-1.517.575-.295.863-.774.863-1.438 0-.458-.129-.823-.387-1.096-.258-.273-.631-.41-1.118-.41-.531 0-1.133.218-1.804.653-.671.436-1.299 1.026-1.882 1.771-.582.745-1.058 1.62-1.427 2.623a9.209 9.209 0 0 0-.554 3.21c0 1.579.355 2.811 1.063 3.697.708.885 1.608 1.328 2.7 1.328z"/></defs><g fill="none" fill-rule="evenodd"><path fill="none" d="M32.5 0v32H.5V0h32z"/><g transform="translate(.13)"><path fill="none" d="M0 0h32v32H0z"/><use fill="#000" fill-rule="nonzero" xlink:href="#a"/></g></g></svg>