<svg xmlns="http://www.w3.org/2000/svg" width="32" height="32" viewBox="0 0 32 32"><path d="M15.612 4.862a.805.805 0 0 0-.36.415l-2.81 7.373h-6.91a.8.8 0 0 0-.8.8l.008.115a.8.8 0 0 0 .265.487l5.59 4.89-2.333 7.348c-.133.42.1.87.52 1.005l.116.027a.803.803 0 0 0 .56-.117L16 22.999l6.542 4.206a.8.8 0 0 0 1.106-.24l.056-.104a.8.8 0 0 0 .033-.57l-2.332-7.348 5.59-4.89a.802.802 0 0 0 .074-1.13l-.08-.08a.809.809 0 0 0-.522-.193h-6.91l-2.81-7.373a.8.8 0 0 0-1.032-.462l-.103.047z" fill="#000" fill-rule="nonzero"/></svg>