<svg xmlns="http://www.w3.org/2000/svg" width="32" height="32" viewBox="0 0 32 32"><path d="M21.5 4.217a1.2 1.2 0 0 1 1.194 1.077l.006.123-.001 1.183H23a4.4 4.4 0 0 1 4.395 4.187L27.4 11v11a4.4 4.4 0 0 1-4.4 4.4H9A4.4 4.4 0 0 1 4.6 22V11A4.4 4.4 0 0 1 9 6.6h.299L9.3 5.417a1.2 1.2 0 0 1 2.394-.123l.006.123-.001 1.183h8.6l.001-1.183a1.2 1.2 0 0 1 1.2-1.2zM24.999 15.7h-18L7 22a2 2 0 0 0 1.85 1.995L9 24h14a2 2 0 0 0 2-2l-.001-6.3zM9.299 9H9a2 2 0 0 0-2 2l-.001 2.3h18L25 11a2 2 0 0 0-1.85-1.994L23 9h-.301l.001.584a1.2 1.2 0 0 1-2.394.122l-.006-.122L20.299 9h-8.6l.001.584a1.2 1.2 0 0 1-2.394.122L9.3 9.584 9.299 9z" fill="#000" fill-rule="nonzero"/></svg>