<svg xmlns="http://www.w3.org/2000/svg" width="32" height="32" viewBox="0 0 32 32"><path d="M21.6 3.36c2.12 0 3.84 1.72 3.84 3.84v17.6c0 2.12-1.72 3.84-3.84 3.84H10.4c-2.12 0-3.84-1.72-3.84-3.84V7.2c0-2.12 1.72-3.84 3.84-3.84zm0 2.24H10.4a1.6 1.6 0 0 0-1.6 1.6v17.6a1.6 1.6 0 0 0 1.6 1.6h11.2a1.6 1.6 0 0 0 1.6-1.6V7.2a1.6 1.6 0 0 0-1.6-1.6zm-3.646 6.3c2.041 0 3.646 1.587 3.646 3.618a3.95 3.95 0 0 1-.458 1.823c-.1.194-.256.403-.489.664l-.26.28-.15.154-.38.377-.326.312-.57.533-.67.615-1.06.954a1.862 1.862 0 0 1-2.474 0l-.554-.497-.965-.876-.604-.562-.507-.484-.381-.378-.15-.153-.257-.277c-.231-.259-.387-.468-.487-.662a3.95 3.95 0 0 1-.458-1.823c0-2.031 1.605-3.618 3.646-3.618.655 0 1.302.176 1.871.494l.082.048.084-.048a3.875 3.875 0 0 1 1.653-.488zm0 2.2c-.426 0-.865.186-1.172.497l-.782.79-.782-.79a1.692 1.692 0 0 0-1.172-.497c-.832 0-1.446.607-1.446 1.418 0 .266.068.53.216.82l.032.042.08.093.202.22.183.19.352.349.61.581.56.518L16 19.384l1.034-.934.811-.75.486-.464.35-.347.186-.193.25-.275.067-.083a1.77 1.77 0 0 0 .216-.82c0-.81-.614-1.418-1.446-1.418zM18 6.4a.8.8 0 0 1 .1 1.594L18 8h-4a.8.8 0 0 1-.1-1.594L14 6.4h4z" fill="#000" fill-rule="nonzero"/></svg>