<svg xmlns="http://www.w3.org/2000/svg" width="32" height="32" viewBox="0 0 32 32"><path d="M16.226 7.377a9.592 9.592 0 0 1 10.658.419l.322.233c.31.226.494.587.494.971v16a1.2 1.2 0 0 1-1.906.97l-.321-.233a7.187 7.187 0 0 0-8.504.031l-.236.182a1.2 1.2 0 0 1-1.483-.013 7.193 7.193 0 0 0-8.723-.2l-.321.233A1.2 1.2 0 0 1 4.3 25V9c0-.384.184-.745.494-.97l.322-.234a9.594 9.594 0 0 1 10.866-.286l.016.011zm-1.425 2.228a7.193 7.193 0 0 0-8.274.132l.173-.122v13.246l.212-.096a9.6 9.6 0 0 1 7.889.089zm10.438-.031a7.195 7.195 0 0 0-8.04.03v13.25a9.6 9.6 0 0 1 8.084-.001l.017.008V9.616z" fill="#000" fill-rule="nonzero"/></svg>