<svg xmlns="http://www.w3.org/2000/svg" width="32" height="32" viewBox="0 0 32 32"><path d="M18 3.8A3.2 3.2 0 0 1 21.2 7v.3H26a1.2 1.2 0 0 1 .123 2.394L26 9.7l-.36-.001-.836 14.98a3.201 3.201 0 0 1-3.015 3.016l-.18.005H10.39a3.2 3.2 0 0 1-3.195-3.022L6.36 9.7H6a1.2 1.2 0 0 1-.123-2.394L6 7.3h4.799L10.8 7c0-1.706 1.336-3.1 3.018-3.195L14 3.8zm5.23 6H8.769l.824 14.745c.021.388.318.7.694.748l.104.007H21.61a.8.8 0 0 0 .798-.755L23.23 9.8zM16 12a1 1 0 0 1 .993.883L17 13v9a1 1 0 0 1-1.993.117L15 22v-9a1 1 0 0 1 1-1zm4.055.002a.999.999 0 0 1 .943.937v.116l-.5 9a.998.998 0 0 1-1.996.006v-.116l.5-9a.998.998 0 0 1 1.053-.943zm-7.07.826l.013.117.5 9a.998.998 0 0 1-1.983.227l-.013-.117-.5-9a.998.998 0 0 1 1.983-.227zM18 6.2h-4a.8.8 0 0 0-.8.8v.3h5.6V7a.8.8 0 0 0-.7-.794L18 6.2z" fill="#000" fill-rule="nonzero"/></svg>