<svg xmlns="http://www.w3.org/2000/svg" width="32" height="32" viewBox="0 0 32 32"><path d="M7.6 16.8c.614 0 1.147.345 1.415.853a4.545 4.545 0 0 1 4.022.024l3.131 1.565 4.597-.919c.089-.017.18-.025.27-.022l.135.011a3.212 3.212 0 0 1 2.727 2.742l.011.104 2.177-.773a3.373 3.373 0 0 1 4.217 1.818l.072.176a3.414 3.414 0 0 1-1.885 4.35l-8.033 3.341a9.202 9.202 0 0 1-5.875.403L9.14 29.04c-.193.67-.81 1.16-1.54 1.16H3.9a1.6 1.6 0 0 1-1.6-1.6V18.4a1.6 1.6 0 0 1 1.6-1.6zm4.363 3.023a2.154 2.154 0 0 0-1.926 0c-.513.257-.837.78-.837 1.354v5.398l5.992 1.577a6.798 6.798 0 0 0 4.065-.19l.277-.108 8.033-3.342c.504-.21.751-.78.56-1.29a.974.974 0 0 0-1.238-.576l-6.987 2.485c-1.505.535-2.31-1.72-.808-2.26l2.183-.787.07-.085a.806.806 0 0 0 .148-.288l.023-.106a.811.811 0 0 0-.494-.864l-.04-.015-4.749.95a1.198 1.198 0 0 1-.65-.05l-.122-.053zM6.8 19.2H4.7v8.6h2.1v-8.6zm12.8-9.1a2.5 2.5 0 0 1 0 5 2.5 2.5 0 0 1 0-5zm1.064-5.847a.998.998 0 0 1 .16 1.312l-.077.1-8 9a.999.999 0 0 1-1.571-1.23l.077-.1 8-9a.999.999 0 0 1 1.411-.082zM19.6 11.9a.7.7 0 1 0-.001 1.399.7.7 0 0 0 .001-1.399zm-7.5-7.8a2.5 2.5 0 0 1 0 5 2.5 2.5 0 0 1 0-5zm0 1.8a.7.7 0 1 0-.001 1.399A.7.7 0 0 0 12.1 5.9z" fill="#000" fill-rule="nonzero"/></svg>