<svg width="40" height="40" viewBox="0 0 40 40" xmlns="http://www.w3.org/2000/svg"><title>01CDD637-6F75-4A65-8519-8AC2C4432917</title><g fill="none" fill-rule="evenodd"><path d="M26.8 4a4.8 4.8 0 0 1 4.8 4.8v19.8a4.792 4.792 0 0 1-1.844 3.782c.029.134.044.274.044.418v1a2 2 0 0 1-2 2h-.5a2 2 0 0 1-2-2l-.001-.4h-11l.001.4a2 2 0 0 1-2 2h-.5a2 2 0 0 1-2-2v-1c0-.144.015-.284.044-.419A4.79 4.79 0 0 1 8 28.6V8.8A4.8 4.8 0 0 1 12.8 4zm1.999 20l-18 .082.001 4.518a2 2 0 0 0 1.85 1.995l.15.005h14a2 2 0 0 0 2-2l-.001-4.6zm-13.268 2.269a1.6 1.6 0 1 1-2.26 2.262 1.6 1.6 0 0 1 2.26-2.262zm10.8 0a1.6 1.6 0 1 1-2.26 2.262 1.6 1.6 0 0 1 2.26-2.262zM28.8 13.2h-18v8.482l18-.083V13.2zM26.8 6.8h-14a2 2 0 0 0-2 2l-.001 2h18l.001-2a2 2 0 0 0-1.85-1.995L26.8 6.8zm-4.5 1a1 1 0 0 1 .117 1.993L22.3 9.8h-5a1 1 0 0 1-.117-1.993L17.3 7.8h5z" fill="#000" fill-rule="nonzero"/></g></svg>