<svg xmlns="http://www.w3.org/2000/svg" width="32" height="32" viewBox="0 0 32 32"><path d="M20.012 7.805c-1.424.062-2.803.647-3.875 1.592l-.138.125-.136-.125c-1.135-1-2.615-1.597-4.126-1.597-3.354 0-5.937 2.679-5.937 6.12 0 1.078.258 2.124.77 3.172l.074.136.046.075.11.164.133.183.157.203.183.221.206.241.232.262.394.43.295.311.49.507.547.555.823.815 1.177 1.144 1.346 1.285 1.202 1.134.636.596a2.018 2.018 0 0 0 2.758 0l1.841-1.733 1.594-1.524 1.143-1.115.978-.978.51-.523.588-.624.376-.415.219-.25.194-.232.17-.212.145-.192c.023-.03.044-.06.064-.09l.11-.163.085-.145.034-.066c.512-1.048.77-2.094.77-3.173 0-3.439-2.583-6.119-5.937-6.119l-.251.005zm.251 2.395c2.009 0 3.537 1.585 3.537 3.72 0 .7-.17 1.388-.526 2.118l-.022.039-.073.107-.112.145-.24.284-.205.233-.24.265-.428.456-.502.521-.403.41-.72.717-.814.797-.906.875-.999.953-1.611 1.517-1.222-1.15-1.401-1.335-1.224-1.185-.802-.79-.702-.707-.53-.548-.584-.623-.34-.38-.177-.208-.192-.242-.076-.11-.023-.04c-.356-.732-.526-1.419-.526-2.121 0-2.133 1.528-3.718 3.537-3.718 1.267 0 2.548.722 3.25 1.826.472.74 1.554.74 2.025 0 .703-1.104 1.983-1.826 3.251-1.826z" fill="#000" fill-rule="nonzero"/></svg>