<svg xmlns="http://www.w3.org/2000/svg" width="32" height="32" viewBox="0 0 32 32"><path d="M11.184 18.384l2.545 2.545-5.637 4.498a1 1 0 0 1-1.406-1.405l4.498-5.638zm9.482-11.678c.098.063.19.136.272.22l4.25 4.25a1.6 1.6 0 0 1-.272 2.48l-4.128 2.63c1.058 2.7.635 5.72-1.338 7.692-.323.323-.862.315-1.25 0l-.087-.08-3.408-3.412-5.189-5.182L8.213 14c-.389-.39-.423-.988-.077-1.335 1.986-1.987 5-2.408 7.697-1.343l2.624-4.124a1.6 1.6 0 0 1 2.21-.49zm-.72 2.62l-3.152 4.954-1.842-.727c-1.299-.512-2.627-.526-3.732-.093l-.108.045 5.29 5.284 2.204 2.204.04-.094c.404-1.04.417-2.282-.008-3.509l-.085-.23-.72-1.839 4.953-3.154-2.84-2.84z" fill="#000" fill-rule="nonzero"/></svg>