<svg xmlns="http://www.w3.org/2000/svg" width="32" height="32" viewBox="0 0 32 32"><path d="M27.2 14.8V16c0 6.186-5.014 11.2-11.2 11.2a11.178 11.178 0 0 1-7.92-3.28l-1.714 1.714A.8.8 0 0 1 5 25.069V19.8a.8.8 0 0 1 .8-.8h5.269a.798.798 0 0 1 .565 1.366l-1.857 1.858a8.8 8.8 0 0 0 15.019-5.964L24.8 16v-1.2h2.4zM16 4.8c3.032 0 5.857 1.215 7.92 3.28l1.714-1.714A.8.8 0 0 1 27 6.931V12.2a.8.8 0 0 1-.8.8h-5.269a.8.8 0 0 1-.565-1.366l1.857-1.857A8.8 8.8 0 0 0 7.204 15.74L7.2 16v1.2H4.8V16C4.8 9.814 9.814 4.8 16 4.8z" fill="#000" fill-rule="evenodd"/></svg>