<svg width="32" height="32" viewBox="0 0 32 32" xmlns="http://www.w3.org/2000/svg"><title>D9B9E2FB-42EC-4E01-9885-787BA290BFD3</title><g fill="none" fill-rule="evenodd"><path d="M16 3.3c7.014 0 12.7 5.686 12.7 12.7 0 7.014-5.686 12.7-12.7 12.7-7.014 0-12.7-5.686-12.7-12.7C3.3 8.986 8.986 3.3 16 3.3zm0 2.4C10.311 5.7 5.7 10.311 5.7 16c0 5.689 4.611 10.3 10.3 10.3 5.689 0 10.3-4.611 10.3-10.3 0-5.689-4.611-10.3-10.3-10.3zm-2.639 4.8c.166 0 .27.09.27.254v3.85c0 .194.106.284.287.284h4.104c.196 0 .331-.09.331-.285v-3.849c0-.164.06-.254.24-.254h2.121c.18 0 .286.09.286.254v10.522c0 .164-.105.224-.286.224h-2.12c-.18 0-.24-.06-.24-.24v-4.013c0-.195-.136-.3-.332-.3h-4.104c-.18 0-.286.105-.286.3v4.014c0 .18-.105.239-.27.239H11.21c-.15 0-.211-.06-.211-.224V10.754c0-.164.06-.254.21-.254z" fill="#000" fill-rule="nonzero"/></g></svg>