<svg xmlns="http://www.w3.org/2000/svg" width="32" height="32" viewBox="0 0 32 32"><path d="M5 20a1 1 0 0 1 .993.883L6 21v2a3 3 0 0 0 2.824 2.995L9 26h2a1 1 0 0 1 .117 1.993L11 28H9a4.999 4.999 0 0 1-4.995-4.783L4 23v-2a1 1 0 0 1 1-1zm22 0a1 1 0 0 1 .993.883L28 21v2a4.999 4.999 0 0 1-4.783 4.995L23 28h-2a1 1 0 0 1-.117-1.993L21 26h2a3 3 0 0 0 2.995-2.824L26 23v-2a1 1 0 0 1 1-1zm-11.5-8.5a1 1 0 0 1 1 1v7a1 1 0 0 1-1 1h-2a1 1 0 0 1-1-1v-7a1 1 0 0 1 1-1h2zm3 0a1 1 0 0 1 .993.883l.007.117v7a1 1 0 0 1-1.993.117L17.5 19.5v-7a1 1 0 0 1 1-1zm3 0a1 1 0 0 1 .993.883l.007.117v7a1 1 0 0 1-1.993.117L20.5 19.5v-7a1 1 0 0 1 1-1zm-11 0a1 1 0 0 1 .993.883l.007.117v7a1 1 0 0 1-1.993.117L9.5 19.5v-7a1 1 0 0 1 1-1zM11 4a1 1 0 0 1 .117 1.993L11 6H9a3 3 0 0 0-2.995 2.824L6 9v2a1 1 0 0 1-1.993.117L4 11V9a4.999 4.999 0 0 1 4.783-4.995L9 4h2zm12 0a4.999 4.999 0 0 1 4.995 4.783L28 9v2a1 1 0 0 1-1.993.117L26 11V9a3 3 0 0 0-2.824-2.995L23 6h-2a1 1 0 0 1-.117-1.993L21 4h2z" fill="#000" fill-rule="nonzero"/></svg>