<svg xmlns="http://www.w3.org/2000/svg" width="32" height="32" viewBox="0 0 32 32"><path d="M17.326 4.88c1.1 0 2.032.852 2.122 1.967l.064.876c.034.416.274.79.598.964.054.027.102.055.15.083l.192.102c.333.147.725.14 1.084-.026l.81-.378c1.02-.48 2.237-.116 2.768.845l1.288 2.189a2.089 2.089 0 0 1-.62 2.852l-.748.505c-.355.241-.557.641-.557 1.12v.042c0 .466.21.883.556 1.119l.757.512c.934.645 1.192 1.905.588 2.794l-1.323 2.267c-.582.926-1.78 1.298-2.75.82l-.82-.384c-.382-.182-.844-.166-1.268.079l-.086.051-.029.015c-.36.194-.599.567-.632.972l-.074 1.004c-.12 1.06-1.035 1.85-2.113 1.85h-2.61c-1.1 0-2.03-.852-2.122-1.968l-.063-.875c-.034-.416-.274-.79-.602-.966l-.146-.082-.192-.101a1.313 1.313 0 0 0-1.084.026l-.81.378c-1.019.48-2.237.116-2.768-.846l-1.288-2.188a2.089 2.089 0 0 1 .62-2.852l.748-.506c.355-.24.556-.64.556-1.119v-.042c0-.466-.208-.883-.555-1.119l-.758-.512c-.905-.625-1.176-1.829-.63-2.815l1.323-2.268c.581-.926 1.78-1.298 2.76-.815l.832.4c.381.183.843.167 1.267-.078l.115-.066c.36-.194.6-.567.633-.973l.074-1.003c.12-1.06 1.034-1.85 2.112-1.85zm-.104 2.24H14.8l-.057.786a3.48 3.48 0 0 1-1.656 2.684l-.263.153a3.54 3.54 0 0 1-3.297.127l-.756-.363-1.2 2.056.653.442c.92.624 1.468 1.646 1.533 2.752l.006.222-.006.266c-.065 1.116-.61 2.123-1.534 2.75l-.652.44 1.2 2.037.748-.349c.992-.46 2.122-.455 3.023-.007l.267.144.28.161a3.481 3.481 0 0 1 1.633 2.684l.056.775h2.402l.057-.786a3.481 3.481 0 0 1 1.652-2.683l.184-.105.04-.025.247-.134a3.537 3.537 0 0 1 3.083-.023l.743.348 1.206-2.062-.614-.416c-.92-.623-1.468-1.645-1.533-2.75l-.007-.223.007-.267c.064-1.115.61-2.122 1.534-2.75l.65-.44-1.2-2.037-.746.35c-.992.46-2.122.454-3.024.007l-.266-.144-.287-.165a3.481 3.481 0 0 1-1.627-2.68l-.056-.775zM16 11.88c2.27 0 4.12 1.85 4.12 4.12s-1.85 4.12-4.12 4.12-4.12-1.85-4.12-4.12 1.85-4.12 4.12-4.12zm0 2.24c-1.033 0-1.88.847-1.88 1.88s.848 1.88 1.88 1.88 1.88-.847 1.88-1.88-.847-1.88-1.88-1.88z" fill="#000" fill-rule="nonzero"/></svg>