<svg xmlns="http://www.w3.org/2000/svg" width="40" height="40" viewBox="0 0 40 40"><path d="M18.836 3.925a2.044 2.044 0 0 1 2.02 0l5.09 2.89a7.98 7.98 0 0 0 4.573 1.017l2.162-.172a2.046 2.046 0 0 1 2.2 1.878l.007.137-.164 10.084A15.172 15.172 0 0 1 27.23 32.6l-6.35 3.724a2.045 2.045 0 0 1-2.07 0L12.46 32.6a14.907 14.907 0 0 1-7.364-12.864L5.1 9.701c0-1.13.917-2.045 2.047-2.045l.107.002 2.08.173a7.411 7.411 0 0 0 4.28-.94zm1.01 2.647l-4.85 2.754a10.215 10.215 0 0 1-5.895 1.296l-1.2-.1-.003 9.214a12.109 12.109 0 0 0 5.692 10.272l.29.176 5.967 3.5 5.968-3.5a12.375 12.375 0 0 0 6.1-10.13l.01-.34.15-9.197-1.334.106a10.785 10.785 0 0 1-5.843-1.19l-.334-.183-4.717-2.678zm7.352 8.347l.1.09a1.4 1.4 0 0 1 .09 1.88l-.09.1-7.385 7.385a1.4 1.4 0 0 1-1.864.104l-.1-.088-3.715-3.6a1.4 1.4 0 0 1 1.847-2.1l.1.09 2.727 2.64 6.41-6.41a1.4 1.4 0 0 1 1.88-.09z" fill="#000" fill-rule="nonzero"/></svg>