<svg width="32" height="32" viewBox="0 0 32 32" xmlns="http://www.w3.org/2000/svg"><title>3EFBE570-3A87-43CA-BC13-14B98605C8D0</title><g fill="none" fill-rule="evenodd"><path d="M22.5 5.1a4.4 4.4 0 0 1 4.4 4.4v13a4.4 4.4 0 0 1-4.4 4.4h-13a4.4 4.4 0 0 1-4.4-4.4v-13a4.4 4.4 0 0 1 4.4-4.4zM12.034 17.09l-4.535 4.122L7.5 22.5a2 2 0 0 0 1.85 1.995l.15.005h13a2 2 0 0 0 2-2l-.001-1.277-2.549-2.185-3.23 2.422a1.2 1.2 0 0 1-1.378.044l-.11-.082-5.198-4.332zM22.5 7.5h-13a2 2 0 0 0-2 2l-.001 8.469 3.694-3.357a1.2 1.2 0 0 1 1.465-.115l.11.081 5.271 4.393 3.241-2.431a1.2 1.2 0 0 1 1.39-.035l.11.084L24.5 18.06 24.5 9.5a2 2 0 0 0-1.85-1.995L22.5 7.5zM19.25 9a3.25 3.25 0 1 1 0 6.5 3.25 3.25 0 0 1 0-6.5zm0 2a1.25 1.25 0 1 0 0 2.5 1.25 1.25 0 0 0 0-2.5z" fill="#000" fill-rule="nonzero"/></g></svg>