<svg xmlns="http://www.w3.org/2000/svg" width="32" height="32" viewBox="0 0 32 32"><path d="M17.7 8.8a3.2 3.2 0 0 1 3.2 3.2v13.5a3.2 3.2 0 0 1-3.2 3.2h-9a3.2 3.2 0 0 1-3.2-3.2V12a3.2 3.2 0 0 1 3.2-3.2zm-7.5 2.399l-1.5.001a.8.8 0 0 0-.8.8v13.5a.8.8 0 0 0 .8.8h1.5V11.199zm7.5.001l-5.5-.001V26.3h5.5a.8.8 0 0 0 .794-.7l.006-.1V12a.8.8 0 0 0-.8-.8zm6-7.4c1.706 0 3.1 1.336 3.195 3.018L26.9 7v12c0 1.706-1.336 3.1-3.018 3.195l-.182.005h-.5a1.2 1.2 0 0 1-.123-2.394l.123-.006h.5a.8.8 0 0 0 .794-.7l.006-.1V7a.8.8 0 0 0-.7-.794l-.1-.006h-8.5a.3.3 0 0 0-.3.3 1.2 1.2 0 1 1-2.4 0 2.7 2.7 0 0 1 2.53-2.695l.17-.005h8.5z" fill="#000" fill-rule="nonzero"/></svg>