<svg xmlns="http://www.w3.org/2000/svg" width="32" height="32" viewBox="0 0 32 32"><path d="M22 4.6A4.4 4.4 0 0 1 26.4 9v14a4.4 4.4 0 0 1-4.4 4.4H10A4.4 4.4 0 0 1 5.6 23v-.301l-.489.001a1.2 1.2 0 0 1-.123-2.394l.123-.006H5.6v-3.101l-.488.001a1.2 1.2 0 0 1-.123-2.394l.123-.006H5.6v-3.1h-.488a1.2 1.2 0 0 1-.123-2.394l.123-.006H5.6V9a4.4 4.4 0 0 1 4.188-4.395L10 4.6zM22 7H10a2 2 0 0 0-2 2v.365a1.199 1.199 0 0 1 .001 2.27v3.23a1.2 1.2 0 0 1 0 2.27v3.23a1.2 1.2 0 0 1 0 2.27V23a2 2 0 0 0 2 2h12a2 2 0 0 0 2-2V9a2 2 0 0 0-2-2zm-4.16 10.5a3 3 0 0 1 2.64 1.575l.087.174.842 1.834a1 1 0 0 1-1.763.937l-.055-.103-.842-1.834a1.002 1.002 0 0 0-.78-.575l-.129-.008h-3.68a1 1 0 0 0-.848.47l-.062.113-.84 1.834a1 1 0 0 1-1.862-.725l.043-.11.842-1.833a3 3 0 0 1 2.532-1.743l.194-.006h3.681zM16 9.5a3.5 3.5 0 1 1 0 7 3.5 3.5 0 0 1 0-7zm0 2a1.5 1.5 0 1 0 0 3 1.5 1.5 0 0 0 0-3z" fill="#000" fill-rule="nonzero"/></svg>