<svg xmlns="http://www.w3.org/2000/svg" width="32" height="32" viewBox="0 0 32 32"><path d="M20.012 7.805c-1.424.062-2.803.647-3.875 1.592l-.138.125-.136-.125c-1.135-1-2.615-1.597-4.126-1.597-3.354 0-5.937 2.679-5.937 6.12 0 1.078.258 2.124.77 3.172l.074.136.046.075.11.164.133.183.157.203.183.221.206.241.232.262.394.43.295.311.49.507.547.555.823.815 1.177 1.144 1.346 1.285 1.202 1.134.636.596a2.018 2.018 0 0 0 2.758 0l1.841-1.733 1.594-1.524 1.143-1.115.978-.978.51-.523.588-.624.376-.415.219-.25.194-.232.17-.212.145-.192c.023-.03.044-.06.064-.09l.11-.163.085-.145.034-.066c.512-1.048.77-2.094.77-3.173 0-3.439-2.583-6.119-5.937-6.119l-.251.005z" fill="#000" fill-rule="nonzero"/></svg>