<svg width="80" height="80" viewBox="0 0 80 80" xmlns="http://www.w3.org/2000/svg"><title>30A7E92A-B912-4E18-B38C-EC1DD2059CB4</title><g fill="none" fill-rule="evenodd"><path d="M60 21.6a6.4 6.4 0 0 1 6.4 6.4v24a6.4 6.4 0 0 1-6.4 6.4H20a6.4 6.4 0 0 1-6.4-6.4V28a6.4 6.4 0 0 1 6.4-6.4zm0 2.4H20a4 4 0 0 0-4 4v24a4 4 0 0 0 4 4h40a4 4 0 0 0 4-4V28a4 4 0 0 0-4-4zm-8.108 17.8a7.2 7.2 0 0 1 6.49 4.084l.112.243.606 1.394a1.2 1.2 0 0 1-2.142 1.075l-.058-.117-.607-1.394a4.8 4.8 0 0 0-4.173-2.88l-.228-.005h-3.784a4.8 4.8 0 0 0-4.305 2.678l-.096.207-.607 1.394a1.2 1.2 0 0 1-2.246-.835l.046-.123.606-1.394a7.2 7.2 0 0 1 6.334-4.322l.268-.005h3.784zm-20.225 3a1.2 1.2 0 0 1 .122 2.394l-.122.006h-7.334a1.2 1.2 0 0 1-.122-2.394l.122-.006h7.334zm4.791-6a1.2 1.2 0 0 1 .123 2.394l-.123.006H24.542a1.2 1.2 0 0 1-.123-2.394l.123-.006h11.916zM50 29.8a5.2 5.2 0 1 1 0 10.4 5.2 5.2 0 0 1 0-10.4zm0 2.4a2.8 2.8 0 1 0 0 5.6 2.8 2.8 0 0 0 0-5.6zm-13.542.6a1.2 1.2 0 0 1 .123 2.394l-.123.006H24.542a1.2 1.2 0 0 1-.123-2.394l.123-.006h11.916z" fill="#000" fill-rule="nonzero"/></g></svg>