<svg xmlns="http://www.w3.org/2000/svg" width="32" height="32" viewBox="0 0 32 32"><path d="M26.788 18.316l.086.042 1.227.698c.225.12.33.383.259.625l-.036.09-.215.446a1.318 1.318 0 0 0-.002 1.128l.068.133.012.02c.196.34.523.592.911.668l.148.02.494.037c.252.02.452.21.48.457l.001.096-.003 1.422a.574.574 0 0 1-.425.539l-.093.014-.489.041a1.318 1.318 0 0 0-1.04.655c-.015.021-.034.06-.048.08-.204.333-.24.737-.115 1.096l.054.133.213.44a.536.536 0 0 1-.142.662l-.079.054-1.235.714a.558.558 0 0 1-.671-.094l-.06-.074-.275-.404a1.294 1.294 0 0 0-1.094-.561c-.026.002-.068-.001-.094 0a1.308 1.308 0 0 0-.997.46l-.09.115-.28.403a.555.555 0 0 1-.653.213l-.085-.042-1.227-.698a.537.537 0 0 1-.26-.626l.036-.089.215-.446c.175-.363.165-.767.002-1.128l-.068-.133-.012-.02a1.362 1.362 0 0 0-.91-.668l-.149-.02-.494-.037a.553.553 0 0 1-.497-.456l-.01-.095.003-1.422a.576.576 0 0 1 .425-.54l.093-.014.505-.037a1.313 1.313 0 0 0 1.04-.654l.048-.081c.204-.332.24-.736.115-1.095l-.054-.133-.213-.44a.536.536 0 0 1 .142-.662l.079-.054 1.246-.72a.555.555 0 0 1 .67.094l.061.074.274.404a1.3 1.3 0 0 0 .949.557l.145.004h.094c.386.003.746-.17.998-.46l.089-.115.28-.403a.553.553 0 0 1 .653-.213zM21.9 4.2A4 4 0 0 1 25.895 8l.005.2V16a1.2 1.2 0 0 1-2.394.123L23.5 16V8.2c0-.835-.639-1.52-1.454-1.593L21.9 6.6h-7.7v18.8h3.3a1.2 1.2 0 0 1 .123 2.394l-.123.006h-7.4A4 4 0 0 1 6.105 24l-.005-.2V8.2a4 4 0 0 1 3.8-3.995l.2-.005h11.8zM11.8 6.6h-1.7c-.835 0-1.52.639-1.593 1.454L8.5 8.2v15.6c0 .835.639 1.52 1.454 1.593l.146.007h1.7V6.6zm12.098 15.456a1.653 1.653 0 0 0-.604 2.254 1.654 1.654 0 0 0 2.254.604 1.654 1.654 0 0 0 .604-2.254 1.654 1.654 0 0 0-2.254-.604z" fill="#000" fill-rule="nonzero"/></svg>