<svg xmlns="http://www.w3.org/2000/svg" width="32" height="32" viewBox="0 0 32 32"><path d="M15.463 3.427c.338-.17.736-.17 1.074 0l10 5A1.2 1.2 0 0 1 27.2 9.5v8.159a9.2 9.2 0 0 1-4.186 7.713l-6.36 4.134c-.398.259-.91.259-1.308 0l-6.36-4.134A9.202 9.202 0 0 1 4.8 17.66V9.5c0-.455.257-.87.663-1.073zM16 5.84l-8.8 4.4v7.418a6.797 6.797 0 0 0 2.875 5.552l.22.149L16 27.067l5.706-3.708a6.803 6.803 0 0 0 3.089-5.437l.005-.262v-7.418L16 5.841zm0 4.959a1.2 1.2 0 0 1 1.194 1.077l.006.123v2.8H20a1.2 1.2 0 0 1 .123 2.394l-.123.006h-2.8v2.8a1.2 1.2 0 0 1-2.394.123L14.8 20v-2.8H12a1.2 1.2 0 0 1-.123-2.394L12 14.8h2.8V12a1.2 1.2 0 0 1 1.2-1.2z" fill="#000" fill-rule="nonzero"/></svg>