<svg xmlns="http://www.w3.org/2000/svg" width="32" height="32" viewBox="0 0 32 32"><path d="M17.347 4.91A2 2 0 0 1 20.5 6.544v18.912a2 2 0 0 1-3.153 1.634l-6.928-4.89H5.8a2.2 2.2 0 0 1-2.194-2.043L3.6 20v-8a2.2 2.2 0 0 1 2.2-2.2h4.617zm.752 2.405l-6.601 4.66.002.025v8l-.002.023 6.601 4.66V7.316zm6.312 12.152l.109.073 2 1.5a1.2 1.2 0 0 1-1.331 1.993l-.109-.073-2-1.5a1.2 1.2 0 0 1 1.331-1.993zM9.1 19.8v-7.6H5.999v7.6H9.1zm20.2-5a1.2 1.2 0 0 1 .123 2.394l-.123.006h-5a1.2 1.2 0 0 1-.123-2.394l.123-.006h5zm-2.54-5.52a1.2 1.2 0 0 1-.14 1.596l-.1.084-2 1.5a1.2 1.2 0 0 1-1.54-1.836l.1-.084 2-1.5a1.2 1.2 0 0 1 1.68.24z" fill="#000" fill-rule="nonzero"/></svg>