<svg xmlns="http://www.w3.org/2000/svg" width="32" height="32" viewBox="0 0 32 32"><path d="M13.395 6.543a3 3 0 0 1 5.21 0l8.553 14.969A3 3 0 0 1 24.553 26H7.446a3 3 0 0 1-2.605-4.488zm2.996.568a1.003 1.003 0 0 0-1.26.424l-8.553 14.97A1 1 0 0 0 7.446 24h17.107a1 1 0 0 0 .869-1.496l-8.554-14.97a1.006 1.006 0 0 0-.372-.371zm-.39 12.79a1.5 1.5 0 1 1 0 3 1.5 1.5 0 0 1 0-3zm0-8.8c.672 0 1.225.51 1.292 1.166l.007.133v4.4a1.3 1.3 0 0 1-2.594.133L14.7 16.8v-4.4a1.3 1.3 0 0 1 1.3-1.3z" fill="#000" fill-rule="nonzero"/></svg>