<svg width="40" height="40" viewBox="0 0 40 40" xmlns="http://www.w3.org/2000/svg"><title>AE2B89E8-7D60-4767-97AD-D092D6B5E274</title><g fill="none" fill-rule="evenodd"><path d="M19.77 3.708c8.87 0 16.06 7.19 16.06 16.061 0 8.87-7.19 16.062-16.06 16.062a16.06 16.06 0 0 1-14.418-8.975 1.292 1.292 0 0 1 2.319-1.142 13.476 13.476 0 0 0 12.098 7.532c7.443 0 13.477-6.034 13.477-13.477 0-7.443-6.034-13.477-13.477-13.477-5.225 0-9.91 3-12.143 7.624A1.292 1.292 0 0 1 5.3 12.79a16.06 16.06 0 0 1 14.47-9.083zm-1.043 8.915l.113.088 6.923 6a1.4 1.4 0 0 1 .107 2.013l-.107.103-6.923 6a1.4 1.4 0 0 1-1.937-2.017l.103-.099 4.087-3.542H5a1.4 1.4 0 0 1-.135-2.793L5 18.369h16.093l-4.087-3.542a1.4 1.4 0 0 1-.23-1.862l.09-.113a1.4 1.4 0 0 1 1.861-.229z" fill="#000" fill-rule="nonzero"/></g></svg>