<svg width="112" height="112" viewBox="0 0 112 112" xmlns="http://www.w3.org/2000/svg"><title>5CC94CDC-69CD-4E41-84F6-C290A4F9AA3A</title><g fill="none" fill-rule="evenodd"><path d="M56 20.2c19.772 0 35.8 16.028 35.8 35.8S75.772 91.8 56 91.8c-14.198 0-26.876-8.341-32.63-21.051a1.8 1.8 0 0 1 3.28-1.485C31.825 80.698 43.229 88.2 56 88.2c17.784 0 32.2-14.416 32.2-32.2 0-17.784-14.416-32.2-32.2-32.2a32.103 32.103 0 0 0-23.67 10.37 32.247 32.247 0 0 0-5.69 8.588 1.8 1.8 0 1 1-3.281-1.482 35.847 35.847 0 0 1 6.324-9.547C36.418 24.431 45.872 20.2 56 20.2zm-2.944 20.342l.128.102 16 13.976a1.8 1.8 0 0 1 .12 2.598l-.118.111-16 14.025a1.8 1.8 0 0 1-2.49-2.594l.118-.114L63.187 57.8 18 57.8a1.8 1.8 0 0 1-.148-3.594L18 54.2l45.229-.001-12.413-10.843a1.8 1.8 0 0 1-.274-2.412l.102-.128a1.8 1.8 0 0 1 2.412-.274z" fill="#000" fill-rule="nonzero"/></g></svg>