<svg xmlns="http://www.w3.org/2000/svg" width="32" height="32" viewBox="0 0 32 32"><path d="M16 5.333c.693 0 1.262.53 1.327 1.205l.006.128v6.114l4.39-4.39a1.333 1.333 0 1 1 1.983 1.778l-.097.108-4.39 4.39h6.114a1.333 1.333 0 0 1 .128 2.661l-.128.006h-6.115l4.391 4.391a1.334 1.334 0 0 1-1.777 1.982l-.108-.097-4.39-4.39v6.114a1.333 1.333 0 0 1-2.662.128l-.006-.128v-6.115l-4.39 4.391a1.333 1.333 0 1 1-1.983-1.777l.097-.108 4.391-4.392-6.115.001a1.333 1.333 0 0 1-.128-2.66l.128-.007h6.115l-4.39-4.39a1.333 1.333 0 1 1 1.777-1.983l.108.097 4.39 4.391V6.666c0-.736.597-1.333 1.334-1.333z" fill="#000" fill-rule="nonzero"/></svg>