<svg xmlns="http://www.w3.org/2000/svg" width="32" height="32" viewBox="0 0 32 32"><path d="M16.5 3.8a4.7 4.7 0 0 1 4.7 4.7v2.316a5.2 5.2 0 0 1 4.618 6.524l-2.46 9.227a2.202 2.202 0 0 1-2.126 1.633H10.768a2.2 2.2 0 0 1-2.126-1.633l-2.46-9.227a5.2 5.2 0 0 1 4.617-6.524v-.917L10 9.9a1.4 1.4 0 0 1-.134-2.794L10 7.1h1.012A4.701 4.701 0 0 1 15.5 3.8zm4.923 20.699H10.574l.348 1.301h10.155l.346-1.301zm-.63-11.299h-9.587a2.799 2.799 0 0 0-2.705 3.521l1.54 5.778h11.916l1.542-5.778c.031-.117.055-.237.07-.357l.018-.182.006-.182a2.8 2.8 0 0 0-2.8-2.8zm-4.293-7h-1a2.3 2.3 0 0 0-2.3 2.3v2.3h5.6V8.5a2.301 2.301 0 0 0-2.143-2.295L16.5 6.2z" fill="#000" fill-rule="nonzero"/></svg>