<svg width="40" height="40" viewBox="0 0 40 40" xmlns="http://www.w3.org/2000/svg"><title>2F383B73-E65D-457A-B102-E47E6C506FC6</title><g fill="none" fill-rule="evenodd"><path d="M35.954 24.842l.107.097a1.5 1.5 0 0 1 .097 2.015l-.097.107-9 9a1.5 1.5 0 0 1-2.015.097l-.107-.097-4-4a1.5 1.5 0 0 1 2.015-2.219l.107.097L26 32.878l7.938-7.939a1.5 1.5 0 0 1 2.015-.097zM27.4 4.2a4.4 4.4 0 0 1 4.395 4.187l.005.213v15a1.4 1.4 0 0 1-2.794.135L29 23.6v-15a1.6 1.6 0 0 0-1.454-1.593L27.4 7H12.6a1.6 1.6 0 0 0-1.593 1.454L11 8.6v22.8a1.6 1.6 0 0 0 1.454 1.593L12.6 33h6a1.4 1.4 0 0 1 .135 2.794l-.135.006h-6a4.4 4.4 0 0 1-4.395-4.187L8.2 31.4V8.6a4.4 4.4 0 0 1 4.187-4.395L12.6 4.2h14.8zM21 21.3a1.2 1.2 0 0 1 .123 2.394L21 23.7h-6a1.2 1.2 0 0 1-.123-2.394L15 21.3h6zm4-5.5a1.2 1.2 0 0 1 .123 2.394L25 18.2H15a1.2 1.2 0 0 1-.123-2.394L15 15.8h10zm0-5.5a1.2 1.2 0 0 1 .123 2.394L25 12.7H15a1.2 1.2 0 0 1-.123-2.394L15 10.3h10z" fill="#000" fill-rule="nonzero"/></g></svg>