<svg xmlns="http://www.w3.org/2000/svg" width="32" height="32" viewBox="0 0 32 32"><path d="M24.32 14.8a1.2 1.2 0 0 1 1.194 1.077l.006.123-.001 9.394 2.615-2.725a1.2 1.2 0 0 1 1.817 1.562l-.085.1-4.68 4.88a1.2 1.2 0 0 1-1.621.102l-.099-.09-4.82-4.88a1.2 1.2 0 1 1 1.61-1.774l.098.088 2.765 2.799L23.12 16a1.2 1.2 0 0 1 1.2-1.2zm-2.4-9.52a3.6 3.6 0 0 1 3.595 3.409l.005.191v3a1.2 1.2 0 0 1-2.394.123l-.006-.123v-3a1.2 1.2 0 0 0-1.077-1.194l-.123-.006H10.08a1.2 1.2 0 0 0-1.194 1.077l-.006.123v14.24a1.2 1.2 0 0 0 1.077 1.194l.123.006h4.8a1.2 1.2 0 0 1 .123 2.394l-.123.006h-4.8a3.6 3.6 0 0 1-3.595-3.409l-.005-.191V8.88a3.6 3.6 0 0 1 3.409-3.595l.191-.005h11.84zM20 14.6a1 1 0 0 1 .117 1.993L20 16.6h-8a1 1 0 0 1-.117-1.993L12 14.6h8zm0-4.4a1 1 0 0 1 .117 1.993L20 12.2h-8a1 1 0 0 1-.117-1.993L12 10.2h8z" fill="#000" fill-rule="nonzero"/></svg>