<svg xmlns="http://www.w3.org/2000/svg" width="32" height="32" viewBox="0 0 32 32"><path d="M18 4.8a1.2 1.2 0 0 1 1.198 1.264l-.424 7.885 5.234.766 2.07-2.483c.2-.24.483-.39.79-.425L27 11.8h2.5a1.2 1.2 0 0 1 1.173 1.451l-1.33 6.21A2.201 2.201 0 0 1 27.19 21.2h-7.18l1.436 4.43a1.2 1.2 0 0 1-1.022 1.564l-.12.006h-3c-.275 0-.54-.094-.752-.265l-.102-.092-5.572-5.643H6.043a4.23 4.23 0 0 1-4.225-4.019l-.005-.21c0-.22.017-.44.051-.657a4.763 4.763 0 0 1 5.418-3.97l2.98.452 2.875-6.667a2.201 2.201 0 0 1 1.846-1.322l.175-.007zm-.513 16.4h-3.236l3.556 3.6h.847l-1.167-3.6zm-.754-14H15.29l-3.187 7.396a1.2 1.2 0 0 1-1.158.724l-.124-.012-3.897-.59a2.362 2.362 0 0 0-2.688 1.968A1.83 1.83 0 0 0 6.043 18.8H27.03l.985-4.6h-.454l-2.14 2.568a1.195 1.195 0 0 1-.957.431l-.138-.012-6.983-1.022a1.2 1.2 0 0 1-1.024-1.251l.414-7.714z" fill="#000" fill-rule="nonzero"/></svg>