<svg xmlns="http://www.w3.org/2000/svg" width="32" height="32" viewBox="0 0 32 32"><path d="M16 3.3c6.292 0 11.515 4.575 12.524 10.58h1.809a.8.8 0 0 1 .565 1.365l-3.018 3.018a.799.799 0 0 1-1.131 0l-3.019-3.018a.8.8 0 0 1 .566-1.366h1.785C25.104 9.21 20.961 5.7 16 5.7 10.311 5.7 5.7 10.311 5.7 16c0 5.689 4.611 10.3 10.3 10.3 3.913 0 7.433-2.201 9.18-5.625a1.202 1.202 0 0 1 2.139 1.091A12.699 12.699 0 0 1 16 28.7C8.986 28.7 3.3 23.014 3.3 16 3.3 8.986 8.986 3.3 16 3.3zm-2.639 7.2c.166 0 .27.09.27.254v3.85c0 .194.106.284.287.284h4.104c.196 0 .331-.09.331-.285v-3.849c0-.164.06-.254.24-.254h2.121c.18 0 .286.09.286.254v10.522c0 .164-.105.224-.286.224h-2.12c-.18 0-.24-.06-.24-.24v-4.013c0-.195-.136-.3-.332-.3h-4.104c-.18 0-.286.105-.286.3v4.014c0 .18-.105.239-.27.239H11.21c-.15 0-.211-.06-.211-.224V10.754c0-.164.06-.254.21-.254z" fill="#000" fill-rule="nonzero"/></svg>