<svg xmlns="http://www.w3.org/2000/svg" width="40" height="40" viewBox="0 0 40 40"><path d="M6 22.6a1.4 1.4 0 0 1 1.394 1.265L7.4 24v6a2.6 2.6 0 0 0 2.436 2.595L10 32.6h6a1.4 1.4 0 0 1 .135 2.794L16 35.4h-6a5.4 5.4 0 0 1-5.396-5.183L4.6 30v-6A1.4 1.4 0 0 1 6 22.6zm28 0a1.4 1.4 0 0 1 1.394 1.265L35.4 24v6a5.4 5.4 0 0 1-5.183 5.396L30 35.4h-6a1.4 1.4 0 0 1-.135-2.794L24 32.6h6a2.6 2.6 0 0 0 2.595-2.436L32.6 30v-6a1.4 1.4 0 0 1 1.4-1.4zm-16.5-2.1a2 2 0 0 1 2 2V26a2 2 0 0 1-2 2H14a2 2 0 0 1-2-2v-3.5a2 2 0 0 1 2-2zM26 26v2h-3.5v-2H26zm-8.5-3.5H14V26h3.5v-3.5zm8.5-2v2h-3.5V26h-2v-3.5c0-1.054.816-1.918 1.85-1.995l.15-.005H26zm2 2V26h-2v-3.5h2zM17.5 12a2 2 0 0 1 2 2v3.5a2 2 0 0 1-2 2H14a2 2 0 0 1-2-2V14a2 2 0 0 1 2-2h3.5zm8.5 0a2 2 0 0 1 2 2v3.5a2 2 0 0 1-2 2h-3.5a2 2 0 0 1-2-2V14a2 2 0 0 1 2-2zm0 2h-3.5v3.5H26V14zM16 4.6a1.4 1.4 0 0 1 .135 2.794L16 7.4h-6a2.6 2.6 0 0 0-2.595 2.436L7.4 10v6a1.4 1.4 0 0 1-2.794.135L4.6 16v-6a5.4 5.4 0 0 1 5.183-5.396L10 4.6h6zm14 0a5.4 5.4 0 0 1 5.396 5.183L35.4 10v6a1.4 1.4 0 0 1-2.794.135L32.6 16v-6a2.6 2.6 0 0 0-2.436-2.595L30 7.4h-6a1.4 1.4 0 0 1-.135-2.794L24 4.6h6z" fill="#000" fill-rule="nonzero"/></svg>