<svg xmlns="http://www.w3.org/2000/svg" width="32" height="32" viewBox="0 0 32 32"><path d="M21.9 4.2A4 4 0 0 1 25.895 8l.005.2v10.35a5.5 5.5 0 1 1-5.829 9.25H10.1A4 4 0 0 1 6.105 24l-.005-.2V8.2a4 4 0 0 1 3.8-3.995l.2-.005h11.8zM11.799 6.599L10.1 6.6c-.835 0-1.52.639-1.593 1.454L8.5 8.2v15.6c0 .835.639 1.52 1.454 1.593l.146.007 1.699-.001v-18.8zm2.4 0v18.8h4.138a5.459 5.459 0 0 1-.333-1.678L18 23.5a5.5 5.5 0 0 1 5.279-5.496L23.5 18V8.2a1.6 1.6 0 0 0-1.6-1.6l-7.701-.001zM25.5 22.6h-4l-.113.007A.9.9 0 0 0 21.5 24.4h4l.113-.007A.9.9 0 0 0 25.5 22.6z" fill="#000" fill-rule="nonzero"/></svg>