<svg xmlns="http://www.w3.org/2000/svg" width="32" height="32" viewBox="0 0 32 32"><path d="M20.502 4.8a4.4 4.4 0 0 1 4.268 3.333l1.166 4.667H27.5a1.2 1.2 0 0 1 .21 2.382c.313.603.49 1.29.49 2.018v3.6c0 1.628-.884 3.05-2.199 3.81L26 26.5a1.5 1.5 0 0 1-2.993.144L23 26.5v-1.3H9v1.3a1.5 1.5 0 0 1-2.993.144L6 26.5v-1.889A4.398 4.398 0 0 1 3.8 20.8v-3.6c0-.728.177-1.415.49-2.02A1.197 1.197 0 0 1 3.3 14a1.2 1.2 0 0 1 1.077-1.194L4.5 12.8h1.563L7.23 8.133a4.4 4.4 0 0 1 4.053-3.328l.215-.005zm3.322 10.4H8.174a2 2 0 0 0-1.974 2v3.6a2 2 0 0 0 2 2h15.6a2 2 0 0 0 2-2v-3.6a2 2 0 0 0-2-2h.024zM10 17.3a1.7 1.7 0 1 1 0 3.4 1.7 1.7 0 0 1 0-3.4zm12 0a1.7 1.7 0 1 1 0 3.4 1.7 1.7 0 0 1 0-3.4zM20.502 7.2h-9.004c-.917 0-1.717.625-1.94 1.515L8.537 12.8h14.925l-1.02-4.085a2.002 2.002 0 0 0-1.78-1.509l-.16-.006z" fill="#000" fill-rule="nonzero"/></svg>