<svg xmlns="http://www.w3.org/2000/svg" width="32" height="32" viewBox="0 0 32 32"><path d="M25.5 19.3c.621 0 1.132.473 1.194 1.078l.006.122v4.603l1.451-1.451a1.2 1.2 0 0 1 1.6-.088l.098.088c.437.437.466 1.128.087 1.6l-.087.097-3.5 3.5a1.201 1.201 0 0 1-1.6.087l-.098-.087-3.5-3.5a1.201 1.201 0 0 1 1.6-1.785l.098.088 1.451 1.45V20.5a1.2 1.2 0 0 1 1.2-1.2zM14.316 5.59c.692.825 1.36 2.08 1.688 3.274.332-1.19 1.004-2.444 1.701-3.274a3 3 0 1 1 4.597 3.856 6.128 6.128 0 0 1-.325.355H23.1a3.6 3.6 0 0 1 3.595 3.408l.005.19v3.1a1.2 1.2 0 0 1-2.394.124L24.3 16.5h-7.101v9.3H19a1.2 1.2 0 0 1 .123 2.394L19 28.2H8.9a3.6 3.6 0 0 1-3.595-3.408L5.3 24.6V13.4a3.601 3.601 0 0 1 3.409-3.595L8.9 9.8h1.143a5.454 5.454 0 0 1-.323-.354 2.999 2.999 0 1 1 4.596-3.856zM14.8 16.5H7.7v8.1a1.2 1.2 0 0 0 1.077 1.194l.123.006h5.9v-9.3zm0-4.3H8.9c-.621 0-1.132.473-1.194 1.078L7.7 13.4v1.1h7.1v-2.3zm8.3 0h-5.901v2.3H24.3v-1.1a1.2 1.2 0 0 0-1.077-1.193L23.1 12.2zM11.375 6.752a1 1 0 0 0-.123 1.409c.292.348 1.144 1.005 1.935 1.456l.18.1.162.083.64.002a6.101 6.101 0 0 0-.245-.78c-.32-.838-.836-1.784-1.14-2.147a1.001 1.001 0 0 0-1.41-.123zm9.271 0a1 1 0 0 0-1.409.123c-.307.366-.829 1.314-1.152 2.152a6.5 6.5 0 0 0-.25.775l.644-.002.164-.084.183-.1c.306-.174.621-.378.91-.583l.33-.245.293-.234c.178-.15.32-.287.41-.393a1 1 0 0 0-.123-1.41z" fill="#000" fill-rule="nonzero"/></svg>