<svg xmlns="http://www.w3.org/2000/svg" width="32" height="32" viewBox="0 0 32 32"><path d="M21 4.8a5.2 5.2 0 0 1 5.195 4.98l.005.22v2.377a3.2 3.2 0 0 1 2.494 2.933l.006.19V23a3.2 3.2 0 0 1-2.8 3.175V27.5a1.4 1.4 0 0 1-2.794.135L23.1 27.5l-.001-1.301h-14.2L8.9 27.5a1.4 1.4 0 0 1-2.794.135L6.1 27.5v-1.325a3.2 3.2 0 0 1-2.795-2.993L3.3 23v-7.5a3.201 3.201 0 0 1 2.5-3.123V10a5.2 5.2 0 0 1 4.98-5.195L11 4.8h10zM7.5 14.7h-1a.8.8 0 0 0-.794.7l-.006.1V23a.8.8 0 0 0 .7.794l.1.006h19a.8.8 0 0 0 .794-.7l.006-.1v-7.5a.8.8 0 0 0-.7-.794l-.1-.006h-1a.8.8 0 0 0-.794.7l-.006.1v4a1.2 1.2 0 0 1-1.077 1.194l-.123.006h-13a1.2 1.2 0 0 1-1.194-1.077L8.3 19.5v-4a.8.8 0 0 0-.8-.8zM20 17.2h-8a.8.8 0 0 0-.794.7l-.006.1-.001.299h9.6L20.8 18a.8.8 0 0 0-.7-.794L20 17.2zm1-10H11a2.8 2.8 0 0 0-2.795 2.63L8.2 10v2.377c1.3.29 2.301 1.37 2.474 2.711.35-.161.737-.26 1.144-.283L12 14.8h8c.474 0 .923.103 1.328.288a3.2 3.2 0 0 1 2.472-2.711V10a2.8 2.8 0 0 0-2.63-2.795L21 7.2z" fill="#000" fill-rule="nonzero"/></svg>