<svg width="80" height="80" viewBox="0 0 80 80" xmlns="http://www.w3.org/2000/svg"><title>9E7D0360-D33C-4705-9E3F-E3BA801BE1B2</title><g fill="none" fill-rule="evenodd"><path d="M46 56a6 6 0 1 1-12 0h12zm-6-39.2c9.254 0 16.756 7.502 16.756 16.756l-.001 13.285 4.194 5.425c.585.756.093 1.84-.827 1.928L60 54.2H20c-.997 0-1.56-1.145-.95-1.934l4.194-5.425V33.556c0-9.147 7.329-16.581 16.434-16.753zm0 2.4l-.312.003c-7.784.166-14.044 6.529-14.044 14.353V47.25a1.2 1.2 0 0 1-.25.734L22.443 51.8h35.113l-2.95-3.816a1.2 1.2 0 0 1-.243-.602l-.007-.132V33.556C54.356 25.627 47.928 19.2 40 19.2z" fill="#000" fill-rule="nonzero"/></g></svg>