<svg xmlns="http://www.w3.org/2000/svg" width="32" height="32" viewBox="0 0 32 32"><path d="M16 3.8a9.2 9.2 0 0 1 9.2 9.2v9.309a2.2 2.2 0 0 1 2 2.191V27a2.2 2.2 0 0 1-2.2 2.2H7A2.2 2.2 0 0 1 4.8 27v-2.5a2.2 2.2 0 0 1 2-2.191V13A9.2 9.2 0 0 1 16 3.8zm8.8 20.9H7.2v2.1h17.6v-2.1zM16 6.2A6.8 6.8 0 0 0 9.2 13v9.3h13.6V13a6.8 6.8 0 0 0-6.561-6.796zm4.371 5.872a1 1 0 0 1 .595 1.189l-.038.11-.292.729H21a.9.9 0 0 1 .113 1.793L21 15.9h-1.084l-.988 2.471c-.319.799-1.41.837-1.803.114l-.053-.114-.99-2.471h-.166l-.988 2.471c-.319.799-1.41.837-1.803.114l-.053-.114-.989-2.471H11a.9.9 0 0 1-.113-1.793L11 14.1h.363l-.291-.729a1 1 0 0 1 1.807-.848l.05.106.587 1.47h.966l.59-1.47c.319-.799 1.41-.837 1.803-.114l.053.114.588 1.47h.966l.59-1.47a1 1 0 0 1 1.3-.557z" fill="#000" fill-rule="nonzero"/></svg>