<svg xmlns="http://www.w3.org/2000/svg" width="32" height="32" viewBox="0 0 32 32"><path d="M20.639 3c.756 0 1.481.285 2.033.795l.146.144 4.062 4.296c.479.506.765 1.162.813 1.853l.007.208V19.5a3 3 0 0 1-2.824 2.995l-.176.005h-2.801l.001 3c0 1.706-1.336 3.1-3.018 3.195l-.182.005h-10a3.2 3.2 0 0 1-3.2-3.2V12a3.2 3.2 0 0 1 3.2-3.2h3.999L12.7 6a3 3 0 0 1 2.824-2.995L15.7 3h4.939zm-8.14 8.2H8.7a.8.8 0 0 0-.8.8v13.5a.8.8 0 0 0 .8.8h10a.8.8 0 0 0 .8-.8V18h-5a2.001 2.001 0 0 1-1.995-1.85L12.5 16l-.001-4.8zM20 5h-4.3a1 1 0 0 0-.993.883L14.7 6v2.84c.641.103 1.24.4 1.714.857l4.508 4.35c.625.603.978 1.434.978 2.302l-.001 4.151H24.7a1 1 0 0 0 .993-.883l.007-.117-.001-8.5H22a2.001 2.001 0 0 1-1.995-1.85L20 9V5zm-5.252 6.424a.782.782 0 0 0-.248-.162V16h4.92a.792.792 0 0 0-.165-.226zm7.251-5.441L22 9h2.851l-2.852-3.017z" fill="#000" fill-rule="nonzero"/></svg>