<svg xmlns="http://www.w3.org/2000/svg" width="32" height="32" viewBox="0 0 32 32"><path d="M23 4.6A4.4 4.4 0 0 1 27.4 9v14a4.4 4.4 0 0 1-4.4 4.4H9A4.4 4.4 0 0 1 4.6 23V9A4.4 4.4 0 0 1 9 4.6zM23 7H9a2 2 0 0 0-2 2v14a2 2 0 0 0 2 2h14a2 2 0 0 0 2-2V9a2 2 0 0 0-2-2zm-.684 4.051a.999.999 0 0 1 .663 1.152l-.03.113-.962 2.884H23a.8.8 0 0 1 .1 1.594l-.1.006h-1.547l-1.504 4.516c-.29.87-1.479.91-1.85.119l-.048-.119-1.505-4.516h-1.093l-1.504 4.516c-.29.87-1.479.91-1.85.119l-.048-.119-1.505-4.516H9a.8.8 0 0 1-.1-1.594L9 15.2h1.012l-.96-2.884a1 1 0 0 1 1.853-.741l.044.109L12.12 15.2h1.758l1.173-3.516c.29-.87 1.479-.91 1.85-.119l.048.119L18.12 15.2h1.758l1.173-3.516a1.001 1.001 0 0 1 1.265-.633zM13.345 16.8h-.691L13 17.837l.345-1.037zm6 0h-.691L19 17.837l.345-1.037z" fill="#000" fill-rule="nonzero"/></svg>