<svg width="40" height="40" viewBox="0 0 40 40" xmlns="http://www.w3.org/2000/svg"><title>18CD2BC5-BF0C-47E4-A674-E7ED3B14A247</title><g fill="none" fill-rule="evenodd"><path d="M36 20.057a.59.59 0 1 1-1.179 0c0-7.25-5.204-13.41-12.239-14.65a.591.591 0 0 1 .204-1.166C30.382 5.581 36 12.23 36 20.057zM19.788 4a.59.59 0 0 1 .015 1.183c-5.611.073-10.63 3.305-13.086 8.266a.588.588 0 0 1-.79.267.592.592 0 0 1-.265-.793C8.312 7.568 13.73 4.079 19.788 4zM4.616 15.63a.589.589 0 1 1 1.133.325 14.935 14.935 0 0 0-.57 4.102 14.9 14.9 0 0 0 .83 4.924.589.589 0 1 1-1.112.391A16.087 16.087 0 0 1 4 20.057c0-1.513.209-3 .616-4.427zm28.507 1.658a.59.59 0 1 1-1.154.242C30.793 11.89 25.815 7.785 20 7.785c-1.601 0-3.158.309-4.609.901a.592.592 0 0 1-.444-1.096c1.59-.65 3.299-.988 5.053-.988 6.376 0 11.833 4.501 13.123 10.687zM12.255 9.073a.588.588 0 0 1 .821.14.593.593 0 0 1-.14.825c-1.66 1.18-3.127 2.958-4.055 5.02-1.06 2.35-1.381 4.951-.827 7.629a.59.59 0 1 1-1.154.24c-.606-2.928-.253-5.783.907-8.357 1.015-2.253 2.618-4.196 4.448-5.497zM7.93 28.906a.59.59 0 1 1-1.15-.259c.227-1.015.342-2.06.342-3.119 0-.904-.084-1.798-.25-2.672a.59.59 0 0 1 1.158-.221c.18.947.271 1.914.271 2.893 0 1.147-.125 2.278-.371 3.378zm22.63-11.195a.59.59 0 1 1-1.151.255 9.683 9.683 0 0 0-4.488-6.225.593.593 0 0 1-.205-.81.588.588 0 0 1 .808-.206 10.866 10.866 0 0 1 5.035 6.986zM20 9.204c.965 0 1.914.127 2.83.375a.592.592 0 0 1-.308 1.142A9.615 9.615 0 0 0 20 10.387c-5.321 0-9.635 4.33-9.635 9.67l-.004.065a1.888 1.888 0 0 0 0 .136c.002.098.009.222.021.373.033.41.1.96.211 1.67a.59.59 0 0 1-1.165.183c-.204-1.312-.264-2.066-.243-2.43C9.2 14.048 14.036 9.203 20 9.203zm-7.096 10.971a16.415 16.415 0 0 0 .118 1.243c.043.3.093.558.149.754a.589.589 0 1 1-1.133.325 6.973 6.973 0 0 1-.183-.913 15.606 15.606 0 0 1-.134-1.473c0-4.63 3.72-8.364 8.308-8.364a8.282 8.282 0 0 1 6.461 3.095.593.593 0 0 1-.087.831.588.588 0 0 1-.829-.087 7.105 7.105 0 0 0-5.545-2.656c-3.934 0-7.123 3.197-7.13 7.144 0 .021.002.056.005.101zm12.765-1.063a.59.59 0 0 1-1.163.192 4.573 4.573 0 0 0-6.04-3.566.592.592 0 0 1-.396-1.114A5.718 5.718 0 0 1 20 14.29a5.753 5.753 0 0 1 5.669 4.822zm-10.23 1.032a12.982 12.982 0 0 0 .133 1.235c.05.306.112.564.18.756a.589.589 0 1 1-1.11.398 5.708 5.708 0 0 1-.233-.958 12.625 12.625 0 0 1-.154-1.494v-.024c0-1.387.49-2.7 1.367-3.735a.588.588 0 0 1 .83-.067.593.593 0 0 1 .067.834 4.572 4.572 0 0 0-1.086 2.955c0 .021.002.055.005.1zm7.593-.733a.59.59 0 1 1-1.155.236 1.888 1.888 0 0 0-1.848-1.512 1.89 1.89 0 0 0-1.884 1.955 5.78 5.78 0 0 0 .105.886.59.59 0 1 1-1.156.232 6.956 6.956 0 0 1-.129-1.18 3.07 3.07 0 0 1 3.064-3.076 3.068 3.068 0 0 1 3.003 2.459zm10.986 8.13a.59.59 0 1 1-1.177-.05 38.654 38.654 0 0 0 .028-2.433.59.59 0 1 1 1.178-.024 39.938 39.938 0 0 1-.029 2.508zm-.137-5.434a.59.59 0 0 1-1.173.111 37.902 37.902 0 0 0-.736-4.672.59.59 0 1 1 1.15-.258c.352 1.583.606 3.192.76 4.82zm-2.883 9.468a.59.59 0 1 1-1.163-.19c.298-1.846.449-3.723.449-5.62 0-2.647-.294-5.255-.87-7.79a.59.59 0 1 1 1.15-.263 36.32 36.32 0 0 1 .898 8.053c0 1.96-.156 3.901-.464 5.81zm-3.205 2.18a.59.59 0 1 1-1.136-.316 30.296 30.296 0 0 0 1.093-8.088c0-2.504-.304-4.966-.899-7.35a.59.59 0 1 1 1.143-.287c.619 2.477.934 5.036.934 7.637 0 2.87-.384 5.69-1.135 8.404zm-3.198 1.39a.589.589 0 1 1-1.112-.391 29.03 29.03 0 0 0 1.615-9.58c0-1.975-.197-3.923-.584-5.826a.59.59 0 1 1 1.155-.236c.403 1.98.607 4.007.607 6.061 0 3.436-.573 6.795-1.68 9.972zm-2.89.486a.589.589 0 1 1-1.092-.445 25.93 25.93 0 0 0 1.732-6.874.59.59 0 1 1 1.172.13 27.116 27.116 0 0 1-1.812 7.189zm1.978-10.221a.59.59 0 1 1-1.178 0c0-1.957-.215-3.884-.637-5.76a.59.59 0 1 1 1.15-.26c.44 1.96.665 3.976.665 6.02zm-4.711 10.206a.589.589 0 1 1-1.094-.44 39.183 39.183 0 0 0 .12-.303 67.158 67.158 0 0 0 .294-.763c.109-.288.197-.528.256-.704a.589.589 0 1 1 1.116.38 23.268 23.268 0 0 1-.301.827 68.315 68.315 0 0 1-.391 1.003zm1.443-4.5a.59.59 0 1 1-1.15-.263c.429-1.887.647-3.828.647-5.798 0-1.645-.152-3.27-.452-4.86a.59.59 0 0 1 1.158-.22c.313 1.663.472 3.362.472 5.08 0 2.058-.228 4.087-.675 6.06zm-4.092 3.957a.588.588 0 0 1-.782.287.592.592 0 0 1-.287-.785 23.047 23.047 0 0 0 2.124-9.698c0-1.25-.1-2.487-.295-3.703a.59.59 0 0 1 1.164-.188c.205 1.278.31 2.578.31 3.891 0 3.568-.77 7.028-2.234 10.196zm-2.428-.877a.588.588 0 0 1-.793.257.592.592 0 0 1-.256-.796 18.443 18.443 0 0 0 1.997-8.306c0-.992-.083-1.972-.249-2.935a.59.59 0 0 1 1.162-.2c.177 1.028.266 2.076.266 3.135 0 3.075-.753 6.149-2.127 8.845zm-.543-7.272a.59.59 0 1 1-1.173-.108 17.439 17.439 0 0 0-.17-4.468.59.59 0 0 1 1.162-.197 18.519 18.519 0 0 1 .181 4.773zm-1.596 5.984a.588.588 0 0 1-.782.289.592.592 0 0 1-.288-.785c.42-.914.76-1.864 1.013-2.841a.59.59 0 1 1 1.14.298 18.248 18.248 0 0 1-1.083 3.039zM9.76 31.17a.589.589 0 1 1-1.091-.448 14.196 14.196 0 0 0 1.047-5.371c0-.97-.096-1.927-.287-2.861a.59.59 0 1 1 1.155-.237c.206 1.012.311 2.048.311 3.098 0 2.02-.389 3.988-1.135 5.819z" fill="#000" fill-rule="nonzero"/></g></svg>