<svg xmlns="http://www.w3.org/2000/svg" width="32" height="32" viewBox="0 0 32 32"><path d="M16 3.3c7.014 0 12.7 5.686 12.7 12.7 0 7.014-5.686 12.7-12.7 12.7-7.014 0-12.7-5.686-12.7-12.7C3.3 8.986 8.986 3.3 16 3.3zm0 2.4C10.311 5.7 5.7 10.311 5.7 16c0 5.689 4.611 10.3 10.3 10.3 5.689 0 10.3-4.611 10.3-10.3 0-5.689-4.611-10.3-10.3-10.3zm6.316 5.351a.999.999 0 0 1 .663 1.152l-.03.113-.962 2.884H23a.8.8 0 0 1 .1 1.594l-.1.006h-1.547l-1.504 4.516c-.29.87-1.479.91-1.85.119l-.048-.119-1.505-4.516h-1.093l-1.504 4.516c-.29.87-1.479.91-1.85.119l-.048-.119-1.505-4.516H9a.8.8 0 0 1-.1-1.594L9 15.2h1.012l-.96-2.884a1 1 0 0 1 1.853-.741l.044.109L12.12 15.2h1.758l1.172-3.516c.29-.87 1.479-.91 1.85-.119l.048.119L18.12 15.2h1.758l1.172-3.516a1.001 1.001 0 0 1 1.265-.633zM13.345 16.8h-.691L13 17.837l.345-1.037zm6 0h-.691L19 17.837l.345-1.037z" fill="#000" fill-rule="nonzero"/></svg>