<svg xmlns="http://www.w3.org/2000/svg" width="32" height="32" viewBox="0 0 32 32"><path d="M18.764 5.8a3.2 3.2 0 0 1 2.862 1.769l.616 1.231H24.6a3.6 3.6 0 0 1 3.595 3.409l.005.191v10.2a3.6 3.6 0 0 1-3.6 3.6H7.4a3.6 3.6 0 0 1-3.6-3.6V12.4a3.6 3.6 0 0 1 3.6-3.6h2.357l.617-1.231a3.2 3.2 0 0 1 2.661-1.763l.201-.006zm0 2.4h-5.528a.798.798 0 0 0-.715.442l-.948 1.895a1.2 1.2 0 0 1-1.073.663H7.4a1.2 1.2 0 0 0-1.2 1.2v10.2a1.2 1.2 0 0 0 1.2 1.2h17.2a1.2 1.2 0 0 0 1.2-1.2V12.4a1.2 1.2 0 0 0-1.2-1.2h-3.1a1.2 1.2 0 0 1-1.073-.663l-.948-1.895a.8.8 0 0 0-.715-.442zM16 11.8a5.2 5.2 0 1 1 0 10.4 5.2 5.2 0 0 1 0-10.4zm0 2.4a2.8 2.8 0 1 0 .001 5.601A2.8 2.8 0 0 0 16 14.2zm7.25-1.7a1.25 1.25 0 1 1 0 2.5 1.25 1.25 0 0 1 0-2.5z" fill="#000" fill-rule="nonzero"/></svg>