<svg width="40" height="40" viewBox="0 0 40 40" xmlns="http://www.w3.org/2000/svg"><title>3A4B05C5-230E-46A1-805D-CD61CA430394</title><g fill="none" fill-rule="evenodd"><path d="M6 25.1a1.4 1.4 0 0 1 1.394 1.265l.006.135V30a2.6 2.6 0 0 0 2.436 2.595L10 32.6h3.5a1.4 1.4 0 0 1 .135 2.794l-.135.006H10a5.4 5.4 0 0 1-5.396-5.183L4.6 30v-3.5A1.4 1.4 0 0 1 6 25.1zm28 0a1.4 1.4 0 0 1 1.394 1.265l.006.135V30a5.4 5.4 0 0 1-5.183 5.396L30 35.4h-3.5a1.4 1.4 0 0 1-.135-2.794l.135-.006H30a2.6 2.6 0 0 0 2.595-2.436L32.6 30v-3.5a1.4 1.4 0 0 1 1.4-1.4zm-18.41-.616c2.698 2.27 5.349 2.27 8.382-.042a1.4 1.4 0 0 1 1.698 2.227c-4.055 3.09-8.16 3.09-11.883-.043a1.4 1.4 0 1 1 1.802-2.142zm5.178-11.137a1.4 1.4 0 0 1 1.393 1.265l.007.135v6.12a2.712 2.712 0 0 1-2.546 2.706l-.166.005h-.715a1.4 1.4 0 0 1-.135-2.794l.135-.006.626-.001v-6.03a1.4 1.4 0 0 1 1.266-1.394l.135-.006zm-7.093 0a1.4 1.4 0 0 1 1.393 1.265l.007.135v2.702a1.4 1.4 0 0 1-2.794.135l-.006-.135v-2.702a1.4 1.4 0 0 1 1.4-1.4zm12.835 0a1.4 1.4 0 0 1 1.393 1.265l.007.135v2.702a1.4 1.4 0 0 1-2.794.135l-.006-.135v-2.702a1.4 1.4 0 0 1 1.4-1.4zM13.5 4.6a1.4 1.4 0 0 1 .135 2.794L13.5 7.4H10a2.6 2.6 0 0 0-2.595 2.436L7.4 10v3.5a1.4 1.4 0 0 1-2.794.135L4.6 13.5V10a5.4 5.4 0 0 1 5.183-5.396L10 4.6h3.5zm16.5 0a5.4 5.4 0 0 1 5.396 5.183L35.4 10v3.5a1.4 1.4 0 0 1-2.794.135L32.6 13.5V10a2.6 2.6 0 0 0-2.436-2.595L30 7.4h-3.5a1.4 1.4 0 0 1-.135-2.794L26.5 4.6H30z" fill="#000" fill-rule="nonzero"/></g></svg>