<svg xmlns="http://www.w3.org/2000/svg" width="32" height="32" viewBox="0 0 32 32"><path d="M14.316 5.59c.692.825 1.36 2.08 1.688 3.274.332-1.19 1.004-2.444 1.701-3.274a3 3 0 1 1 4.597 3.856 6.128 6.128 0 0 1-.325.355H23.1a3.6 3.6 0 0 1 3.6 3.6v11.2a3.6 3.6 0 0 1-3.6 3.6H8.9a3.6 3.6 0 0 1-3.6-3.6V13.4a3.6 3.6 0 0 1 3.6-3.6h1.143a5.738 5.738 0 0 1-.323-.355 2.999 2.999 0 1 1 4.596-3.856zM7.7 24.6a1.2 1.2 0 0 0 1.2 1.2h5.9v-9.3H7.7zm16.6-8.1h-7.101v9.3H23.1a1.2 1.2 0 0 0 1.194-1.077l.006-.123v-8.1zm-1.077-4.293L23.1 12.2h-5.901v2.3H24.3v-1.1a1.2 1.2 0 0 0-1.077-1.193zM14.8 12.2H8.9a1.2 1.2 0 0 0-1.2 1.2v1.1h7.1v-2.3zm-3.425-5.448a1 1 0 0 0-.123 1.409c.292.348 1.144 1.005 1.935 1.456l.18.1.162.083.64.002a6.101 6.101 0 0 0-.245-.78c-.32-.838-.836-1.784-1.14-2.147a1.001 1.001 0 0 0-1.41-.123zm9.271 0a1 1 0 0 0-1.409.123c-.307.366-.829 1.314-1.152 2.152a6.5 6.5 0 0 0-.25.775l.644-.002.164-.084.183-.1c.306-.174.621-.378.91-.583l.33-.245.293-.234c.178-.15.32-.287.41-.393a1 1 0 0 0-.123-1.41z" fill="#000" fill-rule="nonzero"/></svg>