<svg xmlns="http://www.w3.org/2000/svg" width="32" height="32" viewBox="0 0 32 32"><path d="M8.2 27.2a4.4 4.4 0 0 1-4.4-4.4v-9.6a4.4 4.4 0 0 1 4.4-4.4l2.6-.001V8c0-1.706 1.336-3.1 3.018-3.195L14 4.8h4A3.2 3.2 0 0 1 21.2 8v.799l2.6.001a4.4 4.4 0 0 1 4.395 4.187l.005.213v9.6a4.4 4.4 0 0 1-4.4 4.4zm.099-16H8.2a2 2 0 0 0-2 2v9.6a2 2 0 0 0 2 2h.099V11.2zm2.401 0v13.6h10.6V11.2H10.7zm13 13.6h.1a2 2 0 0 0 2-2v-9.6a2 2 0 0 0-2-2h-.1v13.6zM18 7.2h-4a.8.8 0 0 0-.8.8v.8h5.6V8a.8.8 0 0 0-.7-.794L18 7.2z" fill="#000" fill-rule="nonzero"/></svg>