<svg xmlns="http://www.w3.org/2000/svg" width="32" height="32" viewBox="0 0 32 32"><path d="M29.29 19.72l.1.09c.515.515.545 1.33.09 1.88l-.09.1-6.2 6.2a1.399 1.399 0 0 1-1.88.09l-.1-.09-3.2-3.2a1.4 1.4 0 0 1 1.88-2.07l.1.09 2.21 2.21 5.21-5.21a1.399 1.399 0 0 1 1.88-.09zM22 4.8c1.706 0 3.1 1.336 3.195 3.018L25.2 8v11.797a1.2 1.2 0 0 1-2.394.123l-.006-.123V8a.8.8 0 0 0-.7-.794L22 7.2H10a.8.8 0 0 0-.794.7L9.2 8v17a.8.8 0 0 0 .7.794l.1.006h5.5a1.2 1.2 0 0 1 .123 2.394l-.123.006H10a3.201 3.201 0 0 1-3.195-3.018L6.8 25V8c0-1.706 1.336-3.1 3.018-3.195L10 4.8h12zM14.2 15a.8.8 0 0 1 .8.8v1.4a.8.8 0 0 1-.8.8h-1.4a.8.8 0 0 1-.8-.8v-1.4a.8.8 0 0 1 .8-.8h1.4zm5 0a.8.8 0 0 1 .8.8v1.4a.8.8 0 0 1-.8.8h-1.4a.8.8 0 0 1-.8-.8v-1.4a.8.8 0 0 1 .8-.8h1.4zm-5-5a.8.8 0 0 1 .8.8v1.4a.8.8 0 0 1-.8.8h-1.4a.8.8 0 0 1-.8-.8v-1.4a.8.8 0 0 1 .8-.8h1.4zm5 0a.8.8 0 0 1 .8.8v1.4a.8.8 0 0 1-.8.8h-1.4a.8.8 0 0 1-.8-.8v-1.4a.8.8 0 0 1 .8-.8h1.4z" fill="#000" fill-rule="nonzero"/></svg>