<svg xmlns="http://www.w3.org/2000/svg" width="32" height="32" viewBox="0 0 32 32"><path d="M9.9 20a1.6 1.6 0 0 1 1.6 1.6v3.8A1.6 1.6 0 0 1 9.9 27H8.6A1.6 1.6 0 0 1 7 25.4v-3.8A1.6 1.6 0 0 1 8.6 20h1.3zm6.75-2a1.6 1.6 0 0 1 1.6 1.6v5.8a1.6 1.6 0 0 1-1.6 1.6h-1.3a1.6 1.6 0 0 1-1.6-1.6v-5.8a1.6 1.6 0 0 1 1.6-1.6h1.3zm6.75-3a1.6 1.6 0 0 1 1.6 1.6v8.8a1.6 1.6 0 0 1-1.6 1.6h-1.3a1.6 1.6 0 0 1-1.6-1.6v-8.8a1.6 1.6 0 0 1 1.6-1.6h1.3zm1.428-9.372a1.2 1.2 0 0 1 1.193 1.07l.007.13v5a1.2 1.2 0 0 1-2.393.13l-.007-.13.002-2.02c-.599.778-1.3 1.544-2.112 2.271-2.22 1.99-4.969 3.435-8.283 4.097A26.611 26.611 0 0 1 8 16.7a1.2 1.2 0 0 1 0-2.4c1.587 0 3.175-.16 4.765-.477 2.875-.575 5.24-1.818 7.151-3.53a14.467 14.467 0 0 0 2.05-2.265h-2.138a1.201 1.201 0 0 1-1.193-1.07l-.007-.13a1.2 1.2 0 0 1 1.07-1.193l.13-.007h5z" fill="#000" fill-rule="evenodd"/></svg>