<svg xmlns="http://www.w3.org/2000/svg" width="32" height="32" viewBox="0 0 32 32"><path d="M23 5c2.21 0 4 1.79 4 4v14c0 2.21-1.79 4-4 4H9c-2.21 0-4-1.79-4-4V9c0-2.21 1.79-4 4-4zm0 2H9a2 2 0 0 0-2 2v14a2 2 0 0 0 2 2h14a2 2 0 0 0 2-2V9a2 2 0 0 0-2-2zm-.046 4.842l.107.097c.551.552.583 1.425.097 2.015l-.097.107-7 7a1.502 1.502 0 0 1-2.015.097l-.107-.097-4-4a1.502 1.502 0 0 1 0-2.122 1.502 1.502 0 0 1 2.015-.097l.107.097L15 17.878l5.938-5.939a1.502 1.502 0 0 1 2.015-.097z" fill="#000" fill-rule="nonzero"/></svg>