<svg xmlns="http://www.w3.org/2000/svg" width="32" height="32" viewBox="0 0 32 32"><path d="M29.29 19.72l.1.09c.515.515.545 1.33.09 1.88l-.09.1-6.2 6.2a1.399 1.399 0 0 1-1.88.09l-.1-.09-3.2-3.2a1.4 1.4 0 0 1 1.88-2.07l.1.09 2.21 2.21 5.21-5.21a1.399 1.399 0 0 1 1.88-.09zM21.9 4.2A4 4 0 0 1 25.895 8l.005.2v10.3a1.2 1.2 0 0 1-2.394.123L23.5 18.5V8.2c0-.835-.639-1.52-1.454-1.593L21.9 6.6h-7.7v18.8H16a1.2 1.2 0 0 1 .123 2.394L16 27.8h-5.9A4 4 0 0 1 6.105 24l-.005-.2V8.2a4 4 0 0 1 3.8-3.995l.2-.005h11.8zM11.8 6.6h-1.7c-.835 0-1.52.639-1.593 1.454L8.5 8.2v15.6c0 .835.639 1.52 1.454 1.593l.146.007h1.7V6.6z" fill="#000" fill-rule="nonzero"/></svg>