<svg xmlns="http://www.w3.org/2000/svg" width="32" height="32" viewBox="0 0 32 32"><path d="M8.804 5.386a3.947 3.947 0 0 0-2.328 2.58l-.13.455a9.262 9.262 0 0 0-.23 4.072l.2 1.205a14.634 14.634 0 0 0 2.2 5.62l.25.37a18.527 18.527 0 0 0 4.545 4.545l.21.147a13.963 13.963 0 0 0 5.514 2.3l.722.132c1.504.274 3.05.223 4.534-.148l.694-.173a3.833 3.833 0 0 0 2.63-2.295c.5-1.25.072-2.68-1.03-3.45l-2.92-2.046-.185-.12a3.2 3.2 0 0 0-3.082-.12l-1.32.66-.29-.198a19.222 19.222 0 0 1-4.7-4.697l-.182-.268.923-1.614a3.2 3.2 0 0 0-.387-3.714l-2.15-2.42a3.118 3.118 0 0 0-3.488-.823zm1.693 2.418l2.152 2.419a.8.8 0 0 1 .097.928l-1.288 2.254c-.22.383-.21.857.024 1.23a21.642 21.642 0 0 0 6.421 6.587l.448.288a1.2 1.2 0 0 0 1.185.064l1.935-.968a.8.8 0 0 1 .816.06l2.922 2.045c.19.133.262.379.176.594-.17.427-.536.746-.982.858l-.694.173a8.373 8.373 0 0 1-3.523.115l-.722-.131a11.576 11.576 0 0 1-4.566-1.906l-.21-.147a16.089 16.089 0 0 1-3.68-3.574l-.28-.39a12.219 12.219 0 0 1-2.045-5l-.2-1.205a6.872 6.872 0 0 1 .17-3.018l.13-.456a1.55 1.55 0 0 1 .912-1.01.717.717 0 0 1 .802.19z" fill="#000" fill-rule="nonzero"/></svg>