<svg xmlns="http://www.w3.org/2000/svg" xmlns:xlink="http://www.w3.org/1999/xlink" width="32" height="32" viewBox="0 0 32 32"><defs><path id="a" d="M26.502 6.5a3.2 3.2 0 0 1 3.195 3.018l.005.182v11c0 1.266-.735 2.36-1.802 2.88l.002.12a3.9 3.9 0 1 1-7.8 0l-6.205.2a3.9 3.9 0 0 1-7.795-.2l-2.1.2a3.202 3.202 0 0 1-3.195-3.018L.802 20.7.8 17.21c0-.458.099-.911.288-1.328l.103-.205 2.187-4.01a3.2 3.2 0 0 1 2.604-1.66L6.187 10h1.615v-.3c0-1.706 1.336-3.1 3.019-3.195l.181-.005h15.5zm-16.5 16.1a1.1 1.1 0 1 0 0 2.2 1.1 1.1 0 0 0 0-2.2zm14 0a1.1 1.1 0 1 0 0 2.2 1.1 1.1 0 0 0 0-2.2zm-16.2-10.2H6.187a.84.84 0 0 0-.188.022L6 17.3c0 .22-.18.4-.4.4H3.2l.002 2.999c0 .408.306.745.7.795l.1.006h2.78c.273-.4.62-.746 1.02-1.02V12.4zm18.7-3.5h-15.5a.8.8 0 0 0-.793.7l-.007.1v10.105a3.895 3.895 0 0 1 3.021 1.695h7.559a3.896 3.896 0 0 1 3.22-1.7c1.238 0 2.34.576 3.055 1.475a.791.791 0 0 0 .219-.37l.02-.105.006-.1v-11a.8.8 0 0 0-.8-.8z"/></defs><g fill="none" fill-rule="evenodd"><path fill="none" d="M0 0h32v32H0z"/><use fill="#000" fill-rule="nonzero" xlink:href="#a"/></g></svg>