<svg xmlns="http://www.w3.org/2000/svg" width="32" height="32" viewBox="0 0 32 32"><path d="M5 20a1 1 0 0 1 .993.883L6 21v2a3 3 0 0 0 2.824 2.995L9 26h2a1 1 0 0 1 .117 1.993L11 28H9a4.999 4.999 0 0 1-4.995-4.783L4 23v-2a1 1 0 0 1 1-1zm22 0a1 1 0 0 1 .993.883L28 21v2a4.999 4.999 0 0 1-4.783 4.995L23 28h-2a1 1 0 0 1-.117-1.993L21 26h2a3 3 0 0 0 2.995-2.824L26 23v-2a1 1 0 0 1 1-1zm-13.25-3.5a2 2 0 0 1 2 2V21a2 2 0 0 1-2 2h-2.5a2 2 0 0 1-2-2v-2.5a2 2 0 0 1 2-2zm7.5 4.5v2h-2.5v-2h2.5zm-7.5-2.5h-2.5V21h2.5v-2.5zm7.5-2v2h-2.5V21h-2v-2.5c0-1.054.816-1.918 1.85-1.995l.15-.005h2.5zm2 2V21h-2v-2.5h2zM13.75 9a2 2 0 0 1 2 2v2.5a2 2 0 0 1-2 2h-2.5a2 2 0 0 1-2-2V11a2 2 0 0 1 2-2h2.5zm7.5 0a2 2 0 0 1 2 2v2.5a2 2 0 0 1-2 2h-2.5a2 2 0 0 1-2-2V11a2 2 0 0 1 2-2zm0 2h-2.5v2.5h2.5V11zM11 4a1 1 0 0 1 .117 1.993L11 6H9a3 3 0 0 0-2.995 2.824L6 9v2a1 1 0 0 1-1.993.117L4 11V9a4.999 4.999 0 0 1 4.783-4.995L9 4h2zm12 0a4.999 4.999 0 0 1 4.995 4.783L28 9v2a1 1 0 0 1-1.993.117L26 11V9a3 3 0 0 0-2.824-2.995L23 6h-2a1 1 0 0 1-.117-1.993L21 4h2z" fill="#000" fill-rule="evenodd"/></svg>