<svg width="112" height="112" viewBox="0 0 112 112" xmlns="http://www.w3.org/2000/svg"><title>90CF5DE6-C0D2-4B90-B730-C1B2702569E8</title><g fill="none" fill-rule="evenodd"><path d="M24 68.2a1.8 1.8 0 0 1 1.8 1.8v9.475l.004.237a6.725 6.725 0 0 0 6.72 6.488H42l.148.006A1.8 1.8 0 0 1 42 89.8h-9.475l-.285-.004c-5.57-.15-10.04-4.713-10.04-10.32V70l.006-.148A1.8 1.8 0 0 1 24 68.2zm64 0a1.8 1.8 0 0 1 1.794 1.652L89.8 70v9.475c0 5.608-4.47 10.17-10.04 10.321l-.285.004H70a1.8 1.8 0 0 1-.148-3.594L70 86.2h9.475a6.725 6.725 0 0 0 6.72-6.488l.005-.237V70a1.8 1.8 0 0 1 1.8-1.8zm-19.52-1.225a1.8 1.8 0 0 1-.455 2.504c-8.323 5.77-16.512 5.77-24.119-.05a1.8 1.8 0 0 1 2.188-2.859c6.337 4.848 12.815 4.848 19.88-.05a1.8 1.8 0 0 1 2.505.455zM57 42.2a1.8 1.8 0 0 1 1.794 1.652L58.8 44v13.158a4.642 4.642 0 0 1-4.429 4.637l-.213.005H53a1.8 1.8 0 0 1-.148-3.594L53 58.2h1.158c.537 0 .98-.406 1.036-.928l.006-.114V44a1.8 1.8 0 0 1 1.8-1.8zm-14.505.418a1.8 1.8 0 0 1 1.794 1.653l.006.147v5.855a1.8 1.8 0 0 1-3.594.147l-.006-.147v-5.855a1.8 1.8 0 0 1 1.8-1.8zm27.81 0a1.8 1.8 0 0 1 1.794 1.653l.006.147v5.855a1.8 1.8 0 0 1-3.594.147l-.006-.147v-5.855a1.8 1.8 0 0 1 1.8-1.8zM42 22.2a1.8 1.8 0 0 1 .148 3.594L42 25.8h-9.475a6.725 6.725 0 0 0-6.72 6.488l-.005.237V42a1.8 1.8 0 0 1-3.594.148L22.2 42v-9.475c0-5.608 4.47-10.17 10.04-10.321l.285-.004H42zm37.475 0l.285.004c5.57.15 10.04 4.713 10.04 10.32V42l-.006.148A1.8 1.8 0 0 1 86.2 42v-9.475l-.004-.237a6.725 6.725 0 0 0-6.72-6.488H70l-.148-.006A1.8 1.8 0 0 1 70 22.2h9.475z" fill="#000" fill-rule="nonzero"/></g></svg>