<svg xmlns="http://www.w3.org/2000/svg" width="40" height="40" viewBox="0 0 40 40"><path d="M27 4.2A4.8 4.8 0 0 1 31.8 9v22a4.8 4.8 0 0 1-4.8 4.8H13A4.8 4.8 0 0 1 8.2 31V9A4.8 4.8 0 0 1 13 4.2zM27 7H13a2 2 0 0 0-2 2v22a2 2 0 0 0 2 2h14a2 2 0 0 0 2-2V9a2 2 0 0 0-2-2zM15 18.5a1.5 1.5 0 1 1-.001 3.001A1.5 1.5 0 0 1 15 18.5zm5 0a1.5 1.5 0 1 1-.001 3.001A1.5 1.5 0 0 1 20 18.5zm5 0a1.5 1.5 0 1 1-.001 3.001A1.5 1.5 0 0 1 25 18.5zM22.5 8a1 1 0 0 1 .117 1.993L22.5 10h-5a1 1 0 0 1-.117-1.993L17.5 8h5z" fill="#000" fill-rule="nonzero"/></svg>