<svg xmlns="http://www.w3.org/2000/svg" width="32" height="32" viewBox="0 0 32 32"><path d="M21 5.5a3.5 3.5 0 0 1 3.5 3.46 3.2 3.2 0 0 1 2.195 2.858L26.7 12v7c0 1.706-1.336 3.1-3.018 3.195l-.182.005h-.3v3.28a1.22 1.22 0 0 1-1.095 1.214l-.125.006H10.02a1.22 1.22 0 0 1-1.22-1.22V22.2h-.3a3.201 3.201 0 0 1-3.195-3.018L5.3 19v-7a3.2 3.2 0 0 1 2.201-3.041L7.5 9a3.5 3.5 0 0 1 3.308-3.495L11 5.5h10zm-.2 13.7h-9.6v5.1h9.6v-5.1zm2.7-8h-15a.8.8 0 0 0-.794.7L7.7 12v7a.8.8 0 0 0 .7.794l.1.006h.3v-1.78c0-.632.48-1.151 1.095-1.214l.125-.006h11.96c.674 0 1.22.546 1.22 1.22v1.78h.3a.8.8 0 0 0 .794-.7l.006-.1v-7a.8.8 0 0 0-.7-.794l-.1-.006zm-11.75 1.3a1 1 0 0 1 .117 1.993l-.117.007h-1.5a1 1 0 0 1-.117-1.993l.117-.007h1.5zm9.25-5H11a1.5 1.5 0 0 0-1.487 1.3h12.974a1.5 1.5 0 0 0-1.343-1.293L21 7.5z" fill="#000" fill-rule="nonzero"/></svg>