<svg width="32" height="32" viewBox="0 0 32 32" xmlns="http://www.w3.org/2000/svg"><title>EE578B1B-FDC7-4283-A57D-96D54AD4E39B</title><g fill="none" fill-rule="evenodd"><path d="M22.5 5.3a4.2 4.2 0 0 1 4.195 3.99l.005.21v13a4.2 4.2 0 0 1-3.99 4.195l-.21.005h-13a4.2 4.2 0 0 1-4.195-3.99L5.3 22.5v-6a1.2 1.2 0 0 1 2.394-.123l.006.123v6a1.8 1.8 0 0 0 1.652 1.794l.148.006h13a1.8 1.8 0 0 0 1.794-1.652l.006-.148v-13a1.8 1.8 0 0 0-1.652-1.794L22.5 7.7H15a1.2 1.2 0 0 1-.123-2.394L15 5.3h7.5zm-1.164 6.758a1 1 0 0 1 .639 1.166l-.033.112-.667 1.864H22a.8.8 0 0 1 .1 1.594l-.1.006h-1.296l-1.262 3.536c-.302.845-1.456.883-1.835.116l-.049-.116-1.262-3.536h-.592l-1.262 3.536c-.302.845-1.456.883-1.835.116l-.049-.116-1.263-3.536H10a.8.8 0 0 1-.1-1.594l.1-.006h.724l-.666-1.864a1 1 0 0 1 1.838-.78l.046.108.905 2.536h1.305l.906-2.536c.302-.845 1.456-.883 1.835-.116l.049.116.905 2.536h1.305l.906-2.536a1 1 0 0 1 1.278-.606zM6.5 1.3a1.2 1.2 0 0 1 1.194 1.077L7.7 2.5v7.103l2.451-2.452a1.2 1.2 0 0 1 1.6-.087l.098.087a1.2 1.2 0 0 1 .087 1.6l-.087.098-4.5 4.5a1.2 1.2 0 0 1-1.6.087l-.098-.087-4.5-4.5a1.2 1.2 0 0 1 1.6-1.785l.098.087L5.3 9.603V2.5a1.2 1.2 0 0 1 1.2-1.2z" fill="#000" fill-rule="nonzero"/></g></svg>