<svg xmlns="http://www.w3.org/2000/svg" width="32" height="32" viewBox="0 0 32 32"><path d="M22 4.8A2.2 2.2 0 0 1 24.2 7v8.799l3.8.001a1.2 1.2 0 0 1 1.194 1.077L29.2 17v6.307a5.186 5.186 0 0 1-3.031 4.711l-.065.03c-.17.095-.372.152-.604.152l.105-.005c-.023.002-.045.004-.068.004l-.037.001H10.414A4.617 4.617 0 0 1 5.8 23.586V7A2.2 2.2 0 0 1 8 4.8zm-.2 2.4H8.2v16.386c0 .522.184 1.025.517 1.422l.132.143a2.21 2.21 0 0 0 1.565.649H22.44a5.444 5.444 0 0 1-.15-.295c-.019-.04-.037-.082-.055-.123a4.11 4.11 0 0 1-.064-.153l-.033-.084c-.02-.053-.04-.106-.058-.159l-.035-.107a5.16 5.16 0 0 1-.174-.724l-.018-.112a4.627 4.627 0 0 1-.047-.503l.02.274a5.004 5.004 0 0 1-.025-.507V7.2zm5 11h-2.6v5.107c0 .153.012.303.037.45a2.78 2.78 0 0 0 1.213 1.87l.05.03.175-.117a2.78 2.78 0 0 0 1.119-2.043l.006-.19V18.2zm-11 .3a1 1 0 0 1 .117 1.993l-.117.007H11a1 1 0 0 1-.117-1.993L11 18.5h4.8zm3.2-4a1 1 0 0 1 .117 1.993L19 16.5h-8a1 1 0 0 1-.117-1.993L11 14.5h8zm0-4a1 1 0 0 1 .117 1.993L19 12.5h-8a1 1 0 0 1-.117-1.993L11 10.5h8z" fill="#000" fill-rule="nonzero"/></svg>