<svg xmlns="http://www.w3.org/2000/svg" width="32" height="32" viewBox="0 0 32 32"><path d="M16 3.8c2.785 0 5.08 2.107 5.196 4.777l.004.212V10h.725a4 4 0 0 1 3.959 3.425l1.452 10A4 4 0 0 1 23.378 28H8.61a3.999 3.999 0 0 1-3.96-4.565l1.426-10A4 4 0 0 1 10.037 10h.763V8.79c0-2.772 2.342-4.99 5.2-4.99zm5.925 8.6H21.2v2.1a1.2 1.2 0 0 1-2.394.123L18.8 14.5v-2.1h-5.6v2.1a1.2 1.2 0 0 1-2.394.123L10.8 14.5v-2.1h-.763a1.6 1.6 0 0 0-1.557 1.229l-.027.145-1.426 10a1.599 1.599 0 0 0 1.438 1.819l.145.007h14.767a1.6 1.6 0 0 0 1.597-1.685l-.014-.145-1.452-10a1.6 1.6 0 0 0-1.436-1.363l-.148-.007zM16 6.2c-1.5 0-2.704 1.086-2.794 2.427l-.006.162V10h5.6V8.79c0-1.416-1.24-2.59-2.8-2.59z" fill="#000" fill-rule="nonzero"/></svg>