<svg xmlns="http://www.w3.org/2000/svg" width="40" height="40" viewBox="0 0 40 40"><path d="M35.954 24.842l.107.097c.551.552.583 1.425.097 2.015l-.097.107-9 9a1.502 1.502 0 0 1-2.015.097l-.107-.097-4-4a1.502 1.502 0 0 1 0-2.122 1.502 1.502 0 0 1 2.015-.097l.107.097 2.94 2.939 7.938-7.939a1.502 1.502 0 0 1 2.015-.097zM20 3.6a8.4 8.4 0 0 1 8.396 8.148L28.4 12v3h-2.8v-3a5.6 5.6 0 0 0-11.196-.22L14.4 12v4.6H28a4.4 4.4 0 0 1 4.395 4.187L32.4 21v2a1.4 1.4 0 0 1-2.794.135L29.6 23v-2c0-.835-.639-1.52-1.454-1.593L28 19.4H12c-.835 0-1.52.639-1.593 1.454L10.4 21v10c0 .835.639 1.52 1.454 1.593L12 32.6h6a1.4 1.4 0 0 1 .135 2.794L18 35.4h-6a4.4 4.4 0 0 1-4.395-4.187L7.6 31V21a4.4 4.4 0 0 1 4-4.382V12c0-4.64 3.76-8.4 8.4-8.4zm-5 20.9a1.5 1.5 0 1 1-.001 3.001A1.5 1.5 0 0 1 15 24.5zm5 0a1.5 1.5 0 1 1-.001 3.001A1.5 1.5 0 0 1 20 24.5zm5 0a1.5 1.5 0 1 1-.001 3.001A1.5 1.5 0 0 1 25 24.5z" fill="#000" fill-rule="nonzero"/></svg>