<svg xmlns="http://www.w3.org/2000/svg" width="32" height="32" viewBox="0 0 32 32"><path d="M15 5.8a1.2 1.2 0 0 1 1.194 1.078L16.2 7v9c0 2.185-1.625 3.98-3.8 4.528v4.914a1.4 1.4 0 0 1-2.794.135l-.006-.135v-4.914c-2.106-.53-3.696-2.23-3.795-4.321L5.8 16V7a1.2 1.2 0 0 1 2.394-.122l.006.12v9c0 .897.645 1.706 1.604 2.08l-.004-.08v-11a1.2 1.2 0 0 1 2.394-.121l.006.122v11l-.004.08c.908-.355 1.535-1.1 1.599-1.938l.005-.142v-9a1.2 1.2 0 0 1 1.2-1.2zm11.196.48l.006.12v19.167a1.2 1.2 0 0 1-2.394.123l-.006-.123V22.1h-2.8a2.2 2.2 0 0 1-2.194-2.042l-.006-.157-.001-3.65c0-2 .265-3.988.791-5.916a7.105 7.105 0 0 1 3.799-4.544l.257-.116.882-.378a1.2 1.2 0 0 1 1.666.982zm-2.394 2.035l-.082.055a4.7 4.7 0 0 0-1.812 2.596 20.054 20.054 0 0 0-.699 4.69l-.008.594v3.45h2.601V8.315z" fill="#000" fill-rule="nonzero"/></svg>