<svg xmlns="http://www.w3.org/2000/svg" width="40" height="40" viewBox="0 0 40 40"><path d="M28 23a7 7 0 1 1 0 14 7 7 0 0 1 0-14zm-.6-18.8a4.4 4.4 0 0 1 4.395 4.187l.005.213v11a1.4 1.4 0 0 1-2.794.135L29 19.6v-11c0-.835-.639-1.52-1.454-1.593L27.4 7H12.6c-.835 0-1.52.639-1.593 1.454L11 8.6v22.8c0 .835.639 1.52 1.454 1.593L12.6 33h6a1.4 1.4 0 0 1 .135 2.794l-.135.006h-6a4.4 4.4 0 0 1-4.395-4.187L8.2 31.4V8.6a4.4 4.4 0 0 1 4.187-4.395L12.6 4.2h14.8zm-.787 23.01a1 1 0 0 0-1.403 1.403l.083.094L26.585 30l-1.292 1.293-.083.094a1 1 0 0 0 1.497 1.32L28 31.415l1.293 1.292.094.083a1 1 0 0 0 1.403-1.403l-.083-.094L29.415 30l1.292-1.293.083-.094a1 1 0 0 0-1.497-1.32L28 28.585l-1.293-1.292zM17 21a2 2 0 0 1 2 2v2a2 2 0 0 1-2 2h-2a2 2 0 0 1-2-2v-2a2 2 0 0 1 2-2h2zm0-8a2 2 0 0 1 2 2v2a2 2 0 0 1-2 2h-2a2 2 0 0 1-2-2v-2a2 2 0 0 1 2-2h2zm8 0a2 2 0 0 1 2 2v2a2 2 0 0 1-2 2h-2a2 2 0 0 1-2-2v-2a2 2 0 0 1 2-2h2zm-2.5-4.5a1 1 0 0 1 .117 1.993l-.117.007h-5a1 1 0 0 1-.117-1.993L17.5 8.5h5z" fill="#000" fill-rule="nonzero"/></svg>