<svg xmlns="http://www.w3.org/2000/svg" width="32" height="32" viewBox="0 0 32 32"><path d="M19.457 19a7.6 7.6 0 0 1 6.795 4.195l.12.25 1.12 2.457a1.2 1.2 0 0 1-2.123 1.112l-.06-.116-1.12-2.456a5.203 5.203 0 0 0-4.498-3.037l-.234-.005h-6.914a5.202 5.202 0 0 0-4.63 2.831l-.101.21-1.12 2.457a1.2 1.2 0 0 1-2.231-.874l.048-.122 1.12-2.456a7.597 7.597 0 0 1 6.636-4.44l.278-.006h6.914zM16 4.2a6 6 0 0 1 6 6v1.2a6 6 0 1 1-12 0v-1.2a6 6 0 0 1 6-6zm0 2.4a3.6 3.6 0 0 0-3.6 3.6v1.2a3.6 3.6 0 0 0 7.2 0v-1.2A3.6 3.6 0 0 0 16 6.6z" fill="#000" fill-rule="nonzero"/></svg>