<svg xmlns="http://www.w3.org/2000/svg" width="32" height="32" viewBox="0 0 32 32"><path d="M16 3.3a6.2 6.2 0 0 1 6.196 5.973l.004.227v2.847a5.201 5.201 0 0 1 4.5 5.153v7a5.2 5.2 0 0 1-5.2 5.2h-11a5.2 5.2 0 0 1-5.2-5.2v-7a5.201 5.201 0 0 1 4.5-5.153V9.5A6.2 6.2 0 0 1 16 3.3zm5.5 11.4h-11a2.8 2.8 0 0 0-2.8 2.8v7a2.8 2.8 0 0 0 2.8 2.8h11a2.8 2.8 0 0 0 2.8-2.8v-7a2.8 2.8 0 0 0-2.8-2.8zM16 17.2a2.2 2.2 0 0 1 1.1 4.106V23.5a1.1 1.1 0 0 1-2.194.12l-.006-.12-.001-2.195A2.2 2.2 0 0 1 16 17.2zm0-11.5a3.8 3.8 0 0 0-3.795 3.604L12.2 9.5v2.8h7.6V9.5A3.8 3.8 0 0 0 16 5.7z" fill="#000" fill-rule="nonzero"/></svg>