<svg xmlns="http://www.w3.org/2000/svg" width="32" height="32" viewBox="0 0 32 32"><path d="M25.988 18.316l.086.042 1.227.698c.225.12.33.383.259.625l-.036.09-.215.446a1.318 1.318 0 0 0-.002 1.128l.068.133.012.02c.196.34.523.592.911.668l.148.02.494.037c.252.02.452.21.48.457l.001.096-.003 1.422a.574.574 0 0 1-.425.539l-.093.014-.489.041a1.318 1.318 0 0 0-1.04.655c-.015.021-.034.06-.048.08-.204.333-.24.737-.115 1.096l.054.133.213.44a.536.536 0 0 1-.142.662l-.079.054-1.235.714a.558.558 0 0 1-.671-.094l-.06-.074-.275-.404a1.294 1.294 0 0 0-1.094-.561c-.026.002-.068-.001-.094 0a1.308 1.308 0 0 0-.997.46l-.09.115-.28.403a.555.555 0 0 1-.653.213l-.085-.042-1.227-.698a.537.537 0 0 1-.26-.626l.036-.089.215-.446c.175-.363.165-.767.002-1.128l-.068-.133-.012-.02a1.362 1.362 0 0 0-.91-.668l-.149-.02-.494-.037a.553.553 0 0 1-.497-.456l-.01-.095.003-1.422a.576.576 0 0 1 .425-.54l.093-.014.505-.037a1.313 1.313 0 0 0 1.04-.654l.048-.081c.204-.332.24-.736.115-1.095l-.054-.133-.213-.44a.536.536 0 0 1 .142-.662l.079-.054 1.246-.72a.555.555 0 0 1 .67.094l.061.074.274.404a1.3 1.3 0 0 0 .949.557l.145.004h.094c.386.003.746-.17.998-.46l.089-.115.28-.403a.553.553 0 0 1 .653-.213zM23 4.8a2.2 2.2 0 0 1 2.194 2.043L25.2 7v8.5a1.2 1.2 0 0 1-2.394.123L22.8 15.5V7.2H9.2v18.6h8.3a1.2 1.2 0 0 1 1.194 1.077L18.7 27a1.2 1.2 0 0 1-1.077 1.194l-.123.006H9a2.2 2.2 0 0 1-2.194-2.043L6.8 26V7a2.2 2.2 0 0 1 2.043-2.194L9 4.8h14zm.098 17.256a1.653 1.653 0 0 0-.604 2.254 1.654 1.654 0 0 0 2.254.604 1.654 1.654 0 0 0 .604-2.254 1.654 1.654 0 0 0-2.254-.604zM16.8 18.5a1 1 0 0 1 .117 1.993l-.117.007H12a1 1 0 0 1-.117-1.993L12 18.5h4.8zm3.2-4a1 1 0 0 1 .117 1.993L20 16.5h-8a1 1 0 0 1-.117-1.993L12 14.5h8zm0-4a1 1 0 0 1 .117 1.993L20 12.5h-8a1 1 0 0 1-.117-1.993L12 10.5h8z" fill="#000" fill-rule="evenodd"/></svg>