<svg xmlns="http://www.w3.org/2000/svg" xmlns:xlink="http://www.w3.org/1999/xlink" width="32" height="32" viewBox="0 0 32 32"><defs><path id="a" d="M9.638 17c.723 0 1.531-.368 2.424-1.105s1.645-1.73 2.258-2.98a8.963 8.963 0 0 0 .918-3.997c0-1.545-.35-2.751-1.051-3.618S12.582 4 11.475 4c-.974 0-1.796.31-2.468.932C8.336 5.552 8 6.326 8 7.25c0 .896.336 1.672 1.007 2.33.672.656 1.42.985 2.247.985h.332c-.06.852-.31 1.546-.753 2.08-.442.534-1.055 1.026-1.837 1.473-.605.304-.907.78-.907 1.43 0 .405.143.748.431 1.03.288.281.66.422 1.118.422zm9.74 0c.737 0 1.553-.365 2.446-1.094.892-.73 1.645-1.712 2.257-2.947.613-1.235.919-2.582.919-4.04 0-1.575-.347-2.788-1.04-3.64C23.266 4.425 22.359 4 21.237 4c-.974 0-1.8.314-2.48.942-.678.629-1.017 1.398-1.017 2.308 0 .91.343 1.69 1.029 2.34.686.65 1.45.975 2.29.975h.267c-.06.867-.296 1.556-.709 2.07-.413.512-1.04 1.007-1.881 1.483-.605.318-.908.795-.908 1.43 0 .42.14.766.42 1.04.281.275.657.412 1.13.412z"/></defs><g fill="none" fill-rule="evenodd"><path fill="none" d="M32 0v32H0V0h32z"/><g><path fill="none" d="M0 0h32v32H0z"/><use fill="#000" fill-rule="nonzero" xlink:href="#a"/></g></g></svg>