<svg xmlns="http://www.w3.org/2000/svg" width="40" height="40" viewBox="0 0 40 40"><path d="M28 23a7 7 0 1 1 0 14 7 7 0 0 1 0-14zm-.6-18.8a4.4 4.4 0 0 1 4.395 4.187l.005.213v11a1.4 1.4 0 0 1-2.794.135L29 19.6v-11c0-.835-.639-1.52-1.454-1.593L27.4 7H12.6c-.835 0-1.52.639-1.593 1.454L11 8.6v22.8c0 .835.639 1.52 1.454 1.593L12.6 33h6a1.4 1.4 0 0 1 .135 2.794l-.135.006h-6a4.4 4.4 0 0 1-4.395-4.187L8.2 31.4V8.6a4.4 4.4 0 0 1 4.187-4.395L12.6 4.2h14.8zm-1.11 23.209a.8.8 0 0 0-1.13.065 3.8 3.8 0 1 0 5.697.02.8.8 0 0 0-1.203 1.056 2.2 2.2 0 1 1-3.298-.012.8.8 0 0 0-.066-1.13zM28 25.6a.9.9 0 0 0-.9.9v3l.007.113A.9.9 0 0 0 28.9 29.5v-3l-.007-.113A.9.9 0 0 0 28 25.6zm-.546-10.758l.107.097c.551.552.583 1.425.097 2.015l-.097.107-7.5 7.5a1.502 1.502 0 0 1-2.015.097l-.107-.097-3.5-3.5a1.502 1.502 0 0 1 0-2.122 1.502 1.502 0 0 1 2.015-.097l.107.097L19 21.378l6.44-6.439a1.5 1.5 0 0 1 2.014-.097zM22.5 8.5a1 1 0 0 1 .117 1.993l-.117.007h-5a1 1 0 0 1-.117-1.993L17.5 8.5h5z" fill="#000" fill-rule="nonzero"/></svg>