<svg xmlns="http://www.w3.org/2000/svg" width="32" height="32" viewBox="0 0 32 32"><g fill="#000" fill-rule="evenodd"><path d="M0 0h32v32H0z" fill="none"/><path fill-rule="nonzero" d="M21 4.5a1 1 0 0 1 .117 1.993L21 6.5H9.5a3 3 0 0 0-2.995 2.824L6.5 9.5v13a3 3 0 0 0 2.824 2.995l.176.005h13a3 3 0 0 0 2.995-2.824l.005-.176V13a1 1 0 0 1 1.993-.117L27.5 13v9.5a4.999 4.999 0 0 1-4.783 4.995l-.217.005h-13a4.999 4.999 0 0 1-4.995-4.783L4.5 22.5v-13a4.999 4.999 0 0 1 4.783-4.995L9.5 4.5H21zM13.1 17a1.4 1.4 0 0 1 1.4 1.4v2.2a1.4 1.4 0 0 1-1.4 1.4h-2.2a1.4 1.4 0 0 1-1.4-1.4v-2.2a1.4 1.4 0 0 1 1.4-1.4h2.2zm8.9 3a1 1 0 0 1 .117 1.993L22 22h-4.5a1 1 0 0 1-.117-1.993L17.5 20H22zm0-3a1 1 0 0 1 .117 1.993L22 19h-4.5a1 1 0 0 1-.117-1.993L17.5 17H22zm-8.9-7a1.4 1.4 0 0 1 1.4 1.4v2.2a1.4 1.4 0 0 1-1.4 1.4h-2.2a1.4 1.4 0 0 1-1.4-1.4v-2.2a1.4 1.4 0 0 1 1.4-1.4h2.2zm15.557-5.13l.092.081c.439.44.466 1.135.082 1.606l-.082.092-7.2 7.2a1.201 1.201 0 0 1-1.606.082l-.092-.082-3.2-3.2a1.201 1.201 0 1 1 1.606-1.78l.092.082 2.35 2.351 6.352-6.35a1.2 1.2 0 0 1 1.606-.083z"/></g></svg>