<svg width="40" height="40" viewBox="0 0 40 40" xmlns="http://www.w3.org/2000/svg"><title>03D4681B-EDB6-42A5-A575-5DF358A58CE4</title><g fill="none" fill-rule="evenodd"><path d="M30.4 6.6a5 5 0 0 1 5 5v13.8a5 5 0 0 1-5 5h-5.38a3.86 3.86 0 0 0 .466 1.474l1.189 2.14A1 1 0 0 1 25.8 35.5H15.2a1 1 0 0 1-.875-1.486l1.19-2.14a3.86 3.86 0 0 0 .464-1.473L9.6 30.4a5 5 0 0 1-5-5V11.6a5 5 0 0 1 5-5zm0 2.8H9.6a2.2 2.2 0 0 0-2.2 2.2v13.8a2.2 2.2 0 0 0 2.2 2.2h20.8a2.2 2.2 0 0 0 2.2-2.2V11.6a2.2 2.2 0 0 0-2.2-2.2zm-.025 14.1a1 1 0 0 1 .117 1.993l-.117.007H10a1 1 0 0 1-.117-1.993L10 23.5h20.375zM20 15a1.8 1.8 0 1 1 0 3.6 1.8 1.8 0 0 1 0-3.6zm-6 0a1.8 1.8 0 1 1 0 3.6 1.8 1.8 0 0 1 0-3.6zm12 0a1.8 1.8 0 1 1 0 3.6 1.8 1.8 0 0 1 0-3.6z" fill="#000"/></g></svg>