<svg xmlns="http://www.w3.org/2000/svg" width="32" height="32" viewBox="0 0 32 32"><path fill="#000" fill-rule="nonzero" d="M18.889 21.64l1.75 1.75-3.442 2.745a.75.75 0 0 1-1.054-1.054l2.746-3.442zm6.27-8.29c.046.03.089.064.128.103l3.539 3.539a.749.749 0 0 1-.128 1.163l-3.206 2.04c.727 1.857.437 3.933-.92 5.29-.215.215-.57.216-.835.018l-.084-.073-2.343-2.346-3.568-3.563-.895-.897c-.268-.269-.292-.68-.053-.918 1.365-1.365 3.436-1.654 5.291-.922l2.038-3.204a.75.75 0 0 1 1.036-.23zM13.5 21.8a1.2 1.2 0 0 1 .123 2.394l-.123.006H7a1.2 1.2 0 0 1-.123-2.394L7 21.8h6.5zm0-7a1.2 1.2 0 0 1 .123 2.394l-.123.006H7a1.2 1.2 0 0 1-.123-2.394L7 14.8h6.5zm11.5-7a1.2 1.2 0 0 1 .123 2.394L25 10.2H7a1.2 1.2 0 0 1-.123-2.394L7 7.8h18z"/></svg>