<svg xmlns="http://www.w3.org/2000/svg" width="32" height="32" viewBox="0 0 32 32"><path d="M21 26.2a5 5 0 1 1-10 0h10zM16 0c6.26 0 11.334 5.074 11.334 11.333v6.523l2.32 3.42c.874 1.287.009 3.012-1.505 3.119l-.15.005H4c-1.604 0-2.555-1.795-1.652-3.123l2.32-3.421v-6.523C4.668 5.172 9.585.16 15.708.003zm0 4a7.333 7.333 0 0 0-7.333 7.333v7.138c0 .401-.12.792-.345 1.124l-.548.805h16.45l-.545-.805a1.996 1.996 0 0 1-.338-.953l-.007-.17v-7.139A7.334 7.334 0 0 0 16 4z" fill="#000" fill-rule="nonzero"/></svg>