<svg width="80" height="80" viewBox="0 0 80 80" xmlns="http://www.w3.org/2000/svg"><title>468B7BEE-4F46-4919-859B-DC8F758915BE</title><g fill="none" fill-rule="evenodd"><path d="M40 58.225a1.2 1.2 0 0 1 1.194 1.077l.006.123V62.5a1.2 1.2 0 0 1-2.394.123L38.8 62.5v-3.075a1.2 1.2 0 0 1 1.2-1.2zm9.751-2.736l.098.087 2 2a1.2 1.2 0 0 1-1.6 1.785l-.098-.087-2-2a1.2 1.2 0 0 1 1.6-1.785zm-17.902.087a1.2 1.2 0 0 1 .087 1.6l-.087.098-2 2a1.2 1.2 0 0 1-1.785-1.6l.087-.098 2-2a1.2 1.2 0 0 1 1.698 0zM40 15.225a1.2 1.2 0 0 1 1.194 1.077l.006.123v12.15l-.001.024L46 28.6c9.916 0 18.021 7.851 18.387 17.728l.01.334.003.315A2.4 2.4 0 0 1 62 49.4H45.987a6 6 0 0 1-11.974 0H18a2.4 2.4 0 0 1-2.4-2.4c0-10.162 8.238-18.4 18.4-18.4l4.801-.001-.001-.024v-12.15a1.2 1.2 0 0 1 1.2-1.2zM46 31H34c-8.837 0-16 7.163-16 16h44l-.003-.315C61.829 37.994 54.731 31 46 31z" fill="#000" fill-rule="nonzero"/></g></svg>