<svg xmlns="http://www.w3.org/2000/svg" width="32" height="32" viewBox="0 0 32 32"><path d="M16 3.3c7.014 0 12.7 5.686 12.7 12.7 0 7.014-5.686 12.7-12.7 12.7-7.014 0-12.7-5.686-12.7-12.7C3.3 8.986 8.986 3.3 16 3.3zm0 2.4C10.311 5.7 5.7 10.311 5.7 16c0 5.689 4.611 10.3 10.3 10.3 5.689 0 10.3-4.611 10.3-10.3 0-5.689-4.611-10.3-10.3-10.3zm-2.323 4.8l.077.005c.144.022.23.107.257.255l1.798 8.918.018.058c.03.07.088.104.173.104.106 0 .17-.054.19-.162l1.8-8.918.018-.069c.047-.127.152-.191.316-.191h4.39l.077.006c.14.022.21.113.21.27v10.447l-.006.074c-.023.135-.117.203-.28.203H20.71l-.076-.006c-.14-.022-.21-.113-.21-.27v-8.95l-.007-.053c-.019-.063-.075-.094-.168-.094-.106 0-.17.049-.191.147l-1.893 8.95-.023.073c-.053.135-.157.203-.311.203h-3.675l-.074-.006c-.137-.022-.224-.113-.26-.27l-1.878-8.95-.018-.053c-.03-.063-.088-.094-.173-.094-.127 0-.19.049-.19.147v8.95l-.006.073c-.022.135-.11.203-.265.203H9.27l-.072-.006c-.133-.022-.199-.113-.199-.27V10.776l.006-.074c.022-.135.11-.203.264-.203h4.407z" fill="#000" fill-rule="nonzero"/></svg>