<svg width="40" height="40" viewBox="0 0 40 40" xmlns="http://www.w3.org/2000/svg"><title>0140E4E3-E52B-44C4-A112-F91677602333</title><g fill="none" fill-rule="evenodd"><path d="M24.012 22.6a9.4 9.4 0 0 1 8.64 5.696l.11.267 1.541 3.925a1.4 1.4 0 0 1-2.55 1.147l-.056-.123-1.542-3.925a6.6 6.6 0 0 0-5.881-4.182l-.262-.005h-8.024a6.6 6.6 0 0 0-6.043 3.945l-.1.242-1.542 3.925a1.4 1.4 0 0 1-2.65-.896l.044-.128 1.542-3.925a9.4 9.4 0 0 1 8.46-5.959l.289-.004h8.024zM20 4.1a7.4 7.4 0 0 1 7.4 7.4V13a7.4 7.4 0 1 1-14.8 0v-1.5A7.4 7.4 0 0 1 20 4.1zm0 2.8a4.6 4.6 0 0 0-4.6 4.6V13a4.6 4.6 0 0 0 9.2 0v-1.5A4.6 4.6 0 0 0 20 6.9z" fill="#000" fill-rule="nonzero"/></g></svg>