<svg xmlns="http://www.w3.org/2000/svg" width="32" height="32" viewBox="0 0 32 32"><path d="M16 3.6c5.744 0 10.4 4.656 10.4 10.4 0 3.48-2.474 7.493-7.305 12.336l-.706.697c-.24.234-.487.47-.738.709a2.4 2.4 0 0 1-3.302 0 86.336 86.336 0 0 1-.738-.709l-.706-.697C8.074 21.493 5.6 17.48 5.6 14 5.6 8.256 10.256 3.6 16 3.6zM16 6a8 8 0 0 0-8 8c0 2.142 1.41 4.842 4.231 8.1l.546.617c.187.208.38.418.578.63l.612.644.645.657.677.67c.232.225.469.452.711.682.242-.23.48-.457.71-.683l.678-.67.645-.656.612-.643C22.215 19.526 24 16.41 24 14a8 8 0 0 0-8-8zm0 3.6a4.4 4.4 0 1 1 0 8.8 4.4 4.4 0 0 1 0-8.8zm0 2.4a2 2 0 1 0-.001 3.999A2 2 0 0 0 16 12z" fill="#000" fill-rule="nonzero"/></svg>