<svg xmlns="http://www.w3.org/2000/svg" xmlns:xlink="http://www.w3.org/1999/xlink" width="32" height="33" viewBox="0 0 32 33"><defs><path id="a" d="M25 21.8a1.2 1.2 0 0 1 .123 2.394L25 24.2H7a1.2 1.2 0 0 1-.123-2.394L7 21.8h18zm0-7a1.2 1.2 0 0 1 .123 2.394L25 17.2H7a1.2 1.2 0 0 1-.123-2.394L7 14.8h18zm0-7a1.2 1.2 0 0 1 .123 2.394L25 10.2H7a1.2 1.2 0 0 1-.123-2.394L7 7.8h18z"/></defs><g transform="translate(0 .087)" fill="none" fill-rule="evenodd"><path fill="none" d="M0 0h32v32H0z"/><use fill="#000" fill-rule="nonzero" xlink:href="#a"/></g></svg>