<svg xmlns="http://www.w3.org/2000/svg" width="32" height="32" viewBox="0 0 32 32"><path d="M21.9 4.2A4 4 0 0 1 25.895 8l.005.2v5.3a1.2 1.2 0 0 1-2.394.123L23.5 13.5V8.2c0-.835-.639-1.52-1.454-1.593L21.9 6.6h-7.7v18.8h.3a1.2 1.2 0 0 1 .123 2.394l-.123.006h-4.4A4 4 0 0 1 6.105 24l-.005-.2V8.2a4 4 0 0 1 3.8-3.995l.2-.005h11.8zM19 21.8a1 1 0 0 1 1 1v4a1 1 0 0 1-1 1h-1a1 1 0 0 1-1-1v-4a1 1 0 0 1 1-1h1zm4-3a1 1 0 0 1 1 1v7a1 1 0 0 1-1 1h-1a1 1 0 0 1-1-1v-7a1 1 0 0 1 1-1h1zm4-3a1 1 0 0 1 1 1v10a1 1 0 0 1-1 1h-1a1 1 0 0 1-1-1v-10a1 1 0 0 1 1-1h1zM11.8 6.6h-1.7c-.835 0-1.52.639-1.593 1.454L8.5 8.2v15.6c0 .835.639 1.52 1.454 1.593l.146.007h1.7V6.6z" fill="#000" fill-rule="nonzero"/></svg>