<svg xmlns="http://www.w3.org/2000/svg" width="32" height="32" viewBox="0 0 32 32"><path d="M16 4.133c6.553 0 11.866 5.313 11.866 11.867 0 6.553-5.313 11.866-11.866 11.866-6.554 0-11.867-5.313-11.867-11.866C4.133 9.446 9.446 4.133 16 4.133zm1.2 2.475V11a1.201 1.201 0 0 1-2.394.122L14.8 11V6.608A9.472 9.472 0 0 0 6.608 14.8H11a1.201 1.201 0 0 1 .122 2.394L11 17.2H6.608a9.471 9.471 0 0 0 8.191 8.19V21a1.2 1.2 0 0 1 2.394-.123L17.2 21v4.391a9.472 9.472 0 0 0 8.191-8.19h-4.39a1.2 1.2 0 0 1-.124-2.395L21 14.8h4.39a9.47 9.47 0 0 0-8.19-8.192z" fill="#000" fill-rule="nonzero"/></svg>