<svg xmlns="http://www.w3.org/2000/svg" width="32" height="32" viewBox="0 0 32 32"><path d="M16 2.8c7.29 0 13.2 5.91 13.2 13.2 0 7.29-5.91 13.2-13.2 13.2-7.29 0-13.2-5.91-13.2-13.2C2.8 8.71 8.71 2.8 16 2.8zm0 2.4C10.035 5.2 5.2 10.035 5.2 16c0 5.965 4.835 10.8 10.8 10.8 5.965 0 10.8-4.835 10.8-10.8 0-5.965-4.835-10.8-10.8-10.8zm-2.3 5.375c.242 0 .478.073.678.21l6.175 4.225a1.199 1.199 0 0 1 0 1.98l-6.175 4.225a1.2 1.2 0 0 1-1.878-.99v-8.45a1.2 1.2 0 0 1 1.2-1.2z" fill="#000" fill-rule="evenodd"/></svg>