<svg xmlns="http://www.w3.org/2000/svg" width="40" height="40" viewBox="0 0 40 40"><path d="M27 4.2A4.8 4.8 0 0 1 31.8 9v18.086c0 1.008-.4 1.974-1.113 2.687l-4.914 4.914a3.8 3.8 0 0 1-2.687 1.113H13A4.8 4.8 0 0 1 8.2 31V9A4.8 4.8 0 0 1 13 4.2zM27 7H13a2 2 0 0 0-2 2v22a2 2 0 0 0 2 2h8.8v-4.5a2.2 2.2 0 0 1 2.043-2.194L24 26.3h5V9a2 2 0 0 0-2-2zm.8 21.699l-3.6.001v3.599l3.6-3.6zM21 21.3a1.2 1.2 0 0 1 .123 2.394L21 23.7h-6a1.2 1.2 0 0 1-.123-2.394L15 21.3h6zm4-5.5a1.2 1.2 0 0 1 .123 2.394L25 18.2H15a1.2 1.2 0 0 1-.123-2.394L15 15.8h10zm0-5.5a1.2 1.2 0 0 1 .123 2.394L25 12.7H15a1.2 1.2 0 0 1-.123-2.394L15 10.3h10z" fill="#000" fill-rule="nonzero"/></svg>