<svg xmlns="http://www.w3.org/2000/svg" width="32" height="32" viewBox="0 0 32 32"><path d="M4.2 13.582a.798.798 0 0 1 1.13.029l2.886 3.038A.8.8 0 0 1 7.636 18H5.894c.93 4.73 5.101 8.3 10.106 8.3 3.99 0 7.568-2.29 9.277-5.819a1.2 1.2 0 1 1 2.16 1.046A12.7 12.7 0 0 1 16 28.7C9.666 28.7 4.415 24.064 3.456 18H1.863a.8.8 0 0 1-.58-1.351l2.887-3.038.03-.03zM17.762 18.3a4.819 4.819 0 0 1 4.31 2.663 1.2 1.2 0 0 1-2.147 1.074 2.416 2.416 0 0 0-1.98-1.33l-.183-.007h-3.527c-.916 0-1.754.517-2.163 1.337a1.2 1.2 0 0 1-2.147-1.074 4.82 4.82 0 0 1 4.082-2.658l.228-.005h3.527zM16 3.3c6.333 0 11.583 4.636 12.543 10.7h1.593a.8.8 0 0 1 .58 1.351l-2.886 3.038a.8.8 0 0 1-1.13.03l-.03-.03-2.887-3.038a.8.8 0 0 1 .58-1.351h1.742c-.93-4.732-5.1-8.3-10.105-8.3a10.298 10.298 0 0 0-9.28 5.827 1.2 1.2 0 0 1-2.163-1.044A12.701 12.701 0 0 1 16 3.3zm0 5.5a4.2 4.2 0 1 1 .001 8.399 4.2 4.2 0 0 1 0-8.399zm0 2.4a1.8 1.8 0 1 0 0 3.599 1.8 1.8 0 0 0 0-3.599z" fill="#000" fill-rule="nonzero"/></svg>